<svg xmlns="http://www.w3.org/2000/svg" xmlns:xlink="http://www.w3.org/1999/xlink" viewBox="0 0 565.27 535.44"><defs><style>.cls-1{fill:none;}.cls-2{fill:#b4b4b4;}.cls-3{fill:#e0e0e0;}.cls-4{fill:#b3b3b3;}.cls-5{fill:#dadada;}.cls-6{fill:#b8b8b8;}.cls-7{fill:#4785ff;}.cls-8{opacity:0.26;}.cls-9{clip-path:url(#clip-path);}.cls-10{fill:#fff;}.cls-11{fill:#f0f0f0;}.cls-12{fill:#b9b9b9;}.cls-13{fill:#1261ff;}.cls-14{fill:#b7b7b7;}.cls-15,.cls-18{fill:#a8a8a8;}.cls-16{fill:#d9d9d9;}.cls-17{fill:#bbb;}.cls-18{opacity:0.43;}.cls-19{fill:#05f;}.cls-20{fill:#c4c4c4;}.cls-21{fill:#c6c6c6;}</style><clipPath id="clip-path"><path class="cls-1" d="M161.23,256l67.59-14.48-1.89-7.45c23.71.14,100.3,14.1,123.94,15.83a27,27,0,0,1,8.52,1.56c4.11,1.7,7.12,5.26,9.86,8.76C403.39,303.73,448,413.54,447,414.13c-15.42,8.95-42.21,17.05-59.93,19.05-1.22.14-17.29-41.2-30.95-74.14a1008.92,1008.92,0,0,1,6.76,126.74c-16.44-2-56.85-4.62-57.79-9-7.9-37.13-20.1-131.69-22.6-132.64-20.49-7.78-60.26-18.68-81.65-23.48-8.69-1.95-17.76-3.79-24.91-9.1-8-6-12.62-15.71-14.39-25.57S160.5,266,161.23,256Z"></path></clipPath></defs><g id="Layer_2" data-name="Layer 2"><g id="Layer_1-2" data-name="Layer 1"><path class="cls-2" d="M263.3,278.89l28.6,198.29a5.77,5.77,0,0,1-11.41,1.74L248.8,281.13Z"></path><path class="cls-2" d="M325.43,252.71l57.24,192a5.77,5.77,0,0,1-11,3.38L311.42,257Z"></path><path class="cls-2" d="M113.54,278.89,84.94,477.18a5.77,5.77,0,0,0,11.4,1.74L128,281.13Z"></path><path class="cls-2" d="M211,222.2l-28.6,198.29a5.77,5.77,0,0,0,11.41,1.74l31.69-197.79Z"></path><path class="cls-3" d="M240.92,96.62c-12.67-13-28.73-23.73-47.24-28.55S154.09,65,138.23,74.72c-14.11,8.7-22.91,22.73-29.21,37-16,36.12-18.76,76-15.22,114.69,1.72,18.86,5,37.91,13.8,55.12C127,319.37,171.1,343.31,216.47,353c20.29,4.35,42.57,6.12,61.3-2.1,23.59-10.35,36.18-34.74,37.32-58.18s-7.23-46.32-15.94-68.46c-4.61-11.71-9.77-23.95-20.39-32Z"></path><path class="cls-4" d="M458.72,466.4c-12.41,3.77-30,3.6-43,4.24-3.54.17-7.24.19-10.45-1.31s-5.76-5-5.06-8.48,4.44-5.75,7.84-7.21a102.63,102.63,0,0,1,27.41-7.48Z"></path><path class="cls-5" d="M429.68,411.09c.6,6.56,1.58,13.86,6.71,18,2.46,2,5.56,2.94,8.59,3.85l15.68,4.75c10,3,20.58,6.41,27.55,14.23-2.57,2.81-6.69,3.44-10.48,3.91l-51.23,6.34c-2.95.36-6.07.7-8.77-.52a13.06,13.06,0,0,1-4.57-3.86c-11.06-13.59-10.49-34.93-23.9-46.21Z"></path><path class="cls-6" d="M453.55,433c-9,10.17-8.31,22.06-6.39,36.39A79.65,79.65,0,0,0,489.75,457c1.12-.72,2.32-1.64,2.41-3s-.93-2.58-1.89-3.59c-9.09-9.56-24.82-12.64-36.72-17.36Z"></path><path class="cls-4" d="M357.15,531.21C344.24,530,328,523.27,315.72,519c-3.35-1.17-6.78-2.54-9.19-5.14s-3.47-6.8-1.52-9.76,6.28-3.66,10-3.73a102.47,102.47,0,0,1,28.21,3.36Z"></path><path class="cls-5" d="M351,469c-1.9,6.3-3.73,13.44-.53,19.19C352,491,354.53,493,357,495l12.76,10.29c8.15,6.58,16.67,13.66,20.19,23.53-3.45,1.64-7.5.68-11.19-.31l-49.86-13.37c-2.86-.76-5.88-1.62-7.93-3.77a13.08,13.08,0,0,1-2.78-5.29c-5.15-16.76,3.39-36.32-4.8-51.81Z"></path><path class="cls-7" d="M161.23,256c-.73,10-1.45,20.11.33,30s6.35,19.59,14.39,25.57c7.15,5.31,16.22,7.15,24.91,9.1,21.39,4.8,61.16,15.7,81.65,23.48,2.5.95,14.7,95.51,22.6,132.64.94,4.42,41.35,7,57.79,9a1007.69,1007.69,0,0,0-12-165.23c-.59-3.79-1.26-7.72-3.52-10.82-2-2.81-5.17-4.61-8.19-6.32L229.59,241.35Z"></path><path class="cls-7" d="M227.47,234.06c23.71.14,100.3,14.1,124,15.83a26.92,26.92,0,0,1,8.51,1.56c4.11,1.7,7.12,5.26,9.86,8.76,34.14,43.52,78.78,153.33,77.77,153.92-15.41,8.95-42.21,17.05-59.92,19.05-1.6.18-28.24-69.66-42.12-100.13-1.8-3.94-3.71-8-6.86-10.94-2.69-2.54-6.1-4.14-9.46-5.7l-91.69-42.72Z"></path><g class="cls-8"><g class="cls-9"><path class="cls-10" d="M167.23,251c-.21,18.43,11.17,34.13,25.17,45.08a108.47,108.47,0,0,0,24.33,14.18c9.79,4.17,19.91,7.44,30,10.85s20.37,7.06,30,11.94c9.33,4.74,18.93,10.71,25.12,19.35,6.36,8.87,8.1,19.94,9.11,30.56,1.15,12.19,1.95,24.43,2.6,36.65q2,37.14,1.34,74.34c-.05,3-.12,6-.19,9a.54.54,0,0,0,1.08,0q.94-37.17-.71-74.34-.82-18.64-2.32-37.24c-.86-10.62-1.48-21.66-5.62-31.61-4-9.6-11.55-16.55-20.15-22.09-8.87-5.72-18.6-9.94-28.48-13.58-19.41-7.16-40-12.14-57.64-23.37-15.24-9.72-29.44-24.38-32.1-43a45,45,0,0,1-.42-6.76.54.54,0,0,0-1.08,0Z"></path><path class="cls-10" d="M173.77,243c5.86,20,22.3,34.69,40.06,44.4,21.65,11.83,46.06,17.15,68.38,27.45,19.44,9,38.34,22.45,46.7,42.89,4.78,11.67,6.64,24.56,8.75,36.93q3.4,20,5.45,40.24a601.92,601.92,0,0,1,2.78,79.77c-.1,3.3-.23,6.61-.39,9.91,0,.69,1.05.69,1.08,0a607,607,0,0,0-1.51-80.35q-1.69-19.69-4.66-39.25-1.52-9.94-3.35-19.83c-1.15-6.18-2.32-12.38-4-18.45A69,69,0,0,0,317.44,338a98.15,98.15,0,0,0-25-19.13C271,307,246.91,301.55,224.71,291.6c-19.21-8.61-38.18-21.69-47.15-41.42a54.61,54.61,0,0,1-2.75-7.42.54.54,0,0,0-1,.28Z"></path><path class="cls-10" d="M199.22,241.13c12,17.56,30.3,29.06,49.08,38.21,19.13,9.32,39.27,16.54,57.57,27.54A116.47,116.47,0,0,1,330.45,326a74.31,74.31,0,0,1,16.86,27.58c3.95,11.76,5.13,24.22,5.66,36.54.58,13.3.75,26.62.88,39.92q.4,41.1-1.1,82.2-.18,5.06-.4,10.09c0,.7,1,.7,1.08,0q1.74-41.2,1.57-82.47-.09-20.73-.66-41.46c-.34-12.14-.87-24.38-3.54-36.27A76.6,76.6,0,0,0,337,331.94a98.74,98.74,0,0,0-22.11-20.53c-17.59-12.25-37.63-20-57-28.77S218.91,263.56,205,247a80,80,0,0,1-4.87-6.44c-.39-.57-1.33,0-.93.54Z"></path><path class="cls-10" d="M224.79,246a411.09,411.09,0,0,0,60.39,29.28c10.12,3.93,20.43,7.26,30.73,10.68,9.88,3.28,19.76,6.83,28.83,12a77,77,0,0,1,22.39,19.45,119.76,119.76,0,0,1,14.66,25.12,288.26,288.26,0,0,1,10.68,28.75q5.32,16.46,9.54,33.25a517.69,517.69,0,0,1,12.36,68.34q.47,4.25.87,8.49c.07.68,1.15.69,1.08,0a518.18,518.18,0,0,0-11.26-68.82q-4-17.07-9.12-33.83c-3.13-10.21-6.48-20.4-10.49-30.3-7.19-17.76-17-35.11-32.78-46.61-17.09-12.48-38.41-17.09-58-24.15a407.86,407.86,0,0,1-62.15-28.47c-2.41-1.36-4.8-2.74-7.19-4.15a.54.54,0,0,0-.54.94Z"></path><path class="cls-10" d="M238.77,232.88a316.26,316.26,0,0,0,54.55,32q14.22,6.54,29.05,11.65,7.51,2.59,15.15,4.8c4.81,1.39,9.66,2.63,14.45,4.1,9.52,2.94,18.79,7,25.62,14.45,7,7.64,11.29,17.42,15.73,26.63A586.31,586.31,0,0,1,418.75,388a587.56,587.56,0,0,1,18.34,64.13q.89,3.91,1.71,7.84c.14.68,1.19.39,1-.29a590,590,0,0,0-17.59-64.77,588.67,588.67,0,0,0-24.57-61.7q-3.54-7.64-7.3-15.15a112.71,112.71,0,0,0-7.38-13,46.45,46.45,0,0,0-9.88-10.77,53,53,0,0,0-12.71-7.05c-9.37-3.77-19.34-5.86-29-8.86a311.72,311.72,0,0,1-30.05-11.09,316.11,316.11,0,0,1-55.7-30.81q-3.22-2.24-6.39-4.55c-.56-.41-1.1.53-.54.93Z"></path><path class="cls-10" d="M446.54,418.26q-13.38-30.25-28.1-59.9c-9.67-19.46-19.66-38.81-30.33-57.75-4.85-8.59-10.22-17-17.54-23.73-6.87-6.3-15-11-23.36-15.06-8.71-4.18-17.74-7.67-26.59-11.52q-14.55-6.3-28.74-13.36a619.63,619.63,0,0,1-55.42-31.15q-3.32-2.1-6.63-4.24c-.58-.38-1.12.55-.54.93a625.16,625.16,0,0,0,54.83,31.76q14,7.19,28.38,13.65c9.14,4.11,18.44,7.83,27.61,11.86,8.5,3.74,16.89,7.89,24.35,13.46,8,6,14.09,13.57,19.24,22,5.54,9.07,10.44,18.56,15.43,27.94q7.67,14.43,15,29,14.78,29.35,28.23,59.37,1.62,3.63,3.23,7.27c.28.63,1.21.08.94-.55Z"></path><path class="cls-10" d="M303.83,224.69q-16.05,14.37-32.61,28.16t-33.78,27Q220.37,293,202.83,305.56t-35.54,24.37q-18,11.85-36.41,23l-4.47,2.7a.54.54,0,0,0,.55.93q18.53-11.13,36.65-23t35.77-24.3Q217,296.9,234.1,283.81t33.73-26.76q16.64-13.71,32.74-28,2-1.78,4-3.59c.52-.46-.24-1.22-.76-.76Z"></path><path class="cls-10" d="M279.52,232.14q-12,12.26-24.95,23.46t-27,21.42Q213.71,287.09,199,296t-30.1,16.58q-15.39,7.65-31.38,14c-1.3.52-2.62,1-3.93,1.54-.64.24-.36,1.29.29,1Q150,323,165.46,315.46t30.39-16.32q14.85-8.79,28.92-18.8t27.17-21.08q13.17-11.13,25.38-23.35c1-1,2-2,3-3,.48-.5-.28-1.26-.77-.77Z"></path><path class="cls-10" d="M254.1,217.26q-10.65,12.11-22.2,23.36t-23.84,21.52q-12.36,10.32-25.49,19.69t-26.83,17.64Q142,307.77,127.63,315l-3.58,1.79c-.62.3-.08,1.23.54.93q14.46-7.11,28.35-15.33T180,284.94q13.17-9.22,25.62-19.42t24.13-21.35Q241.44,233,252.2,221c.89-1,1.78-2,2.66-3,.46-.52-.3-1.29-.76-.77Z"></path><path class="cls-10" d="M238.51,228.21q-8.77,9-18.35,17.11t-19.89,15.37Q190,267.86,179.18,274.1T157,285.54q-11.43,5.25-23.31,9.4l-2.92,1c-.65.22-.37,1.26.29,1q12-4,23.5-9.17T177,276.6q11-6.17,21.47-13.32c6.88-4.73,13.56-9.76,20-15.09s12.73-11.06,18.69-17c.73-.73,1.45-1.47,2.17-2.2.49-.5-.27-1.26-.76-.77Z"></path><path class="cls-10" d="M359.27,218.24q-13.45,16.23-27.94,31.57t-29.9,29.7Q286,293.88,269.68,307.25T236.11,333q-17.13,12.27-35,23.43l-4.33,2.68c-.59.36-.05,1.3.55.93q18-11,35.33-23.24t33.65-25.38q16.43-13.23,32-27.48t30.15-29.46Q343,239.21,356.68,223q1.68-2,3.35-4c.44-.53-.32-1.29-.76-.76Z"></path><path class="cls-10" d="M342.19,216.27a333.59,333.59,0,0,1-24,28.41c-8.48,9-17.41,17.57-26.65,25.79s-18.86,16.16-28.63,23.82-19.88,15.17-30,22.48-20.23,14.4-30.4,21.51l-3.77,2.63c-.57.4,0,1.33.55.94,10.27-7.18,20.54-14.36,30.72-21.67s20.18-14.67,30-22.3,19.54-15.49,28.93-23.7,18.45-16.73,27.09-25.7a341.67,341.67,0,0,0,24.34-28.06q1.38-1.8,2.75-3.61c.42-.55-.52-1.09-.93-.54Z"></path><path class="cls-10" d="M398,255.22q-14.07,15.39-28.94,30t-30.51,28.4q-15.65,13.78-32,26.73t-33.5,25q-17,12-34.68,23.13-2.22,1.39-4.45,2.78c-.59.37,0,1.3.54.93q17.79-11,35-23T303,344.53q16.5-12.86,32.29-26.59t30.81-28.29q15-14.5,29.15-29.81,1.79-1.92,3.55-3.86c.47-.51-.29-1.27-.76-.76Z"></path><path class="cls-10" d="M381.86,258.05q-12.24,12-25,23.34t-26,22.11q-13.27,10.78-27,21T276,344.12q-14.14,9.51-28.72,18.37c-1.2.74-2.42,1.47-3.63,2.2a.54.54,0,0,0,.55.93q14.66-8.81,28.92-18.28t28.06-19.57Q315,317.69,328.26,307t26.17-22q12.84-11.31,25.15-23.2l3-3c.5-.48-.26-1.25-.76-.76Z"></path><path class="cls-10" d="M425.29,296.81a404.55,404.55,0,0,1-29,29.1c-10.17,9.24-20.77,18-31.65,26.43s-22.06,16.42-33.41,24.18-22.94,15.31-34.59,22.69-23.38,14.6-35.12,21.81l-4.27,2.62c-.59.36-.05,1.3.54.93,11.79-7.22,23.57-14.46,35.27-21.82s23.35-14.88,34.81-22.64,22.62-15.66,33.57-24,21.56-16.93,31.8-26,20.15-18.72,29.47-28.82q1.69-1.84,3.37-3.71c.46-.51-.3-1.28-.76-.76Z"></path><path class="cls-10" d="M416.77,289.16q-12.58,13.13-26,25.42t-27.65,23.64q-14.25,11.41-29.25,21.85t-30.51,19.81q-15.58,9.4-31.76,17.76-2,1-3.93,2c-.62.32-.08,1.25.54.93q16.29-8.25,32-17.56T331,363.37q15-10.26,29.22-21.48t27.94-23.5q13.59-12.19,26.34-25.29c1-1.06,2-2.11,3.07-3.18.48-.5-.28-1.26-.77-.76Z"></path><path class="cls-10" d="M451.43,343.48Q438,359,423.37,373.52t-30,27.66q-15.69,13.4-32.35,25.6t-33.94,23q-17.39,10.84-35.55,20.35c-1.5.79-3,1.56-4.51,2.33-.62.32-.07,1.25.55.93q18.3-9.36,35.86-20.09t34.26-22.72q16.63-12,32.35-25.13t30.51-27.56q14.72-14.35,28.34-29.78c1.12-1.26,2.23-2.54,3.34-3.81.45-.53-.31-1.29-.77-.77Z"></path><path class="cls-10" d="M439.81,349.27a292,292,0,0,1-25.67,25.79c-9.07,8.06-18.58,15.61-28.39,22.74s-20,13.87-30.27,20.3-21,12.68-31.64,18.71-21.33,11.84-32.06,17.65l-4,2.17c-.61.33-.07,1.26.54.93,10.76-5.83,21.51-11.66,32.19-17.64s21.3-12.13,31.74-18.55,20.7-13.12,30.67-20.22,19.43-14.43,28.58-22.35a298.48,298.48,0,0,0,26.05-25.37c1-1.12,2-2.25,3-3.39.46-.52-.3-1.29-.76-.77Z"></path></g></g><path d="M181.38,72.18a51.62,51.62,0,0,0,5.07,18.54l6-10.08c.82-1.37,1.61-3.23.56-4.44Z"></path><path class="cls-5" d="M292.72,176.85a157.7,157.7,0,0,0,70.91,27.31c3.57.44,7.33.83,10.26,2.91a15.71,15.71,0,0,1,4.89,6.52,33.67,33.67,0,0,1,2.43,19.8,23.42,23.42,0,0,1-8.65-15.69,14.94,14.94,0,0,1-.06,13.94A13.66,13.66,0,0,1,365.71,220a14.26,14.26,0,0,1,.46,11.08,10.66,10.66,0,0,1-8.48-10.54,12,12,0,0,1,.85,9.93c-1.84.8-4-.62-4.92-2.39s-1.13-3.84-1.83-5.72a11.41,11.41,0,0,0-10.23-7.24,22.13,22.13,0,0,1-2.94,11.12,1.36,1.36,0,0,1-2.4-.08,23.1,23.1,0,0,1-1.56-4.18,12.39,12.39,0,0,0-11.92-9.13,163.51,163.51,0,0,1-47.8-7.45,68,68,0,0,1,10.35-28.23Z"></path><path class="cls-11" d="M115.21,145.13c8.9-36.42,42.6-48.32,70.54-49.18,17.5-.53,54.64,2.11,54.64,2.11a25.14,25.14,0,0,1,4.06,1.36c3,.35,6.06,2.44,8.16,4.57,23.2,23.52,26.62,58,47.13,83.39l-21.1,17a4.76,4.76,0,0,1-2.31,1.22,4.93,4.93,0,0,1-3.08-1c-1.06-.65,4.18,1.57,3.13.9,2.39,13.22.49,24.31,8.69,38.85,1,1.75-78.12-2-126.88,20.06-1.36.61-5.17-20.58-12.41-39.53C92.24,222.94,108.31,173.32,115.21,145.13Z"></path><path class="cls-6" d="M472.27,200.73A10.81,10.81,0,0,0,465,194.5a9.82,9.82,0,0,0-5.07.22l-.05-4.45-32.36.39.28,23.88a16.18,16.18,0,1,0,32.36-.38v0a11.11,11.11,0,0,0,2.55.52,10,10,0,0,0,8.74-4.4A9.68,9.68,0,0,0,472.27,200.73Zm-2.59,4.63v.13l0,.08c0,.18-.06.36-.1.54a8.34,8.34,0,0,1-.26.85s0,.09-.05.13c-.09.19-.16.35-.25.51s-.32.55-.5.82l-.09.13c-.13.14-.24.29-.36.42s-.45.46-.69.68l-.23.19-.34.24a8.45,8.45,0,0,1-.82.49l-.32.15-.33.12a7.92,7.92,0,0,1-.92.26c-.1,0-.47.06-.27.05l-.43,0a10.28,10.28,0,0,1-1.11,0l-.22,0-.55-.11c-.31-.08-.62-.18-.92-.29l-.35-.15-.44-.22L460,198.47a2.91,2.91,0,0,1,.3-.17l.16-.09.13-.08a4.71,4.71,0,0,1,.68-.2l.43-.11.19,0h0c.26,0,.52-.05.79-.06a2.91,2.91,0,0,1,1,0s-.34-.06-.15,0l.19,0,.44.08a9.15,9.15,0,0,1,.93.29l.15.06.43.21a8.25,8.25,0,0,1,.86.53l.12.08h0l.37.31a9.76,9.76,0,0,1,.73.71l.31.36.1.13c.2.28.39.56.56.85l.22.42.13.25c0,.06.11.29.13.33s.12.33.17.51.16.6.23.91v.06c0,.21,0,.41.05.61A8.42,8.42,0,0,1,469.68,205.36Z"></path><path d="M427.33,190.66c.35,2.78,7.58,4.92,16.42,4.81s16-2.41,16.3-5.2Z"></path><path class="cls-10" d="M443.65,207.56c0,3.6.09,7.21.13,10.81a.63.63,0,0,0,1.26,0q-.07-5.42-.13-10.81a.63.63,0,0,0-1.26,0Z"></path><path class="cls-10" d="M437.92,213.66l12.87-.15a.63.63,0,0,0,0-1.26l-12.87.16a.63.63,0,0,0,0,1.25Z"></path><path class="cls-10" d="M447.34,209q-3.45,3.51-6.89,7c-.56.58.34,1.46.9.88l6.88-7a.62.62,0,0,0-.89-.87Z"></path><path class="cls-10" d="M439.71,209.31l8.39,8.19a.63.63,0,0,0,.88-.9l-8.39-8.19c-.58-.56-1.46.34-.88.9Z"></path><path class="cls-12" d="M432.72,197.57a33.64,33.64,0,0,0,23.57-1.11.66.66,0,0,0,.43-.78.63.63,0,0,0-.78-.43,32.63,32.63,0,0,1-22.9,1.1c-.78-.25-1.09,1-.32,1.22Z"></path><path class="cls-13" d="M485.06,225.51c-1,1.33-.47,3.38.76,4.52a9.23,9.23,0,0,0,4.58,1.91c13.75,2.81,28,1.19,41.77-1.73.93-.19,2-.51,2.34-1.41a2,2,0,0,0-1-2.28,5.81,5.81,0,0,0-2.65-.54l-36.74-1.54Z"></path><path class="cls-3" d="M538.23,147.65A35.75,35.75,0,0,0,564,139.21a3.73,3.73,0,0,0-.43-6L551,125.15a49.54,49.54,0,0,0-9.17-5c-2.27-.85-4.66-1.37-6.89-2.33-3.93-1.69-9.26-4.75-14.64-7.78-.06,0-4,.1-5.88,1.75s-1.87,4.81-1.81,5c.1.38,16.9,22.32,21.86,28.79A5.26,5.26,0,0,0,538.23,147.65Z"></path><path class="cls-3" d="M524.67,129.49c-7,4.39-26.35,19.95-29.4,29.24-2.67,8.11,3.66,62.35,2.9,63.57s-2.91,1.58-3.55.28l-3.53-60c0-15,31-36.16,31-36.16Z"></path><path class="cls-3" d="M486.45,227.9a2.4,2.4,0,0,1-1.09-3.82c3.78-4.43,9.88-6.78,15.77-7.64a46,46,0,0,1,23.37,2.69,29.19,29.19,0,0,1,9.23,5.51,2.4,2.4,0,0,1-.81,4,27.54,27.54,0,0,1-5.72,1.18,120.6,120.6,0,0,1-40.67-1.9Z"></path><path class="cls-14" d="M520.45,219.83a23,23,0,0,1,1.82-2.68c.58-.74,1.52-1.52,2.36-1.1s.79,1.66.51,2.57a13.93,13.93,0,0,1-1.16,2.62Z"></path><path class="cls-13" d="M512.71,116.79a12.64,12.64,0,0,0,7.6-5.94c.22-.39-.39-.71-.61-.33a11.85,11.85,0,0,1-7.2,5.61c-.42.12-.22.78.21.66Z"></path><path class="cls-13" d="M521.92,127.64l.05,0s-.07,0,0,0h0l.14,0s-.09,0-.05,0h.15c.08,0-.08,0,0,0l.12,0,.06,0h0l.24.13s-.07,0,0,0l0,0,0,0a.47.47,0,0,1,.1.1l.05,0s-.05-.07,0,0a.83.83,0,0,1,.08.12.41.41,0,0,1,.07.11h0a.19.19,0,0,1,0,.07.56.56,0,0,1,0,.12s0,.09,0,0,0,0,0,0v.14h0c0-.06,0,0,0,0s0,0,0,.07a.14.14,0,0,0,0,.06c0-.07,0-.06,0,0l0,0,0,.07,0,0c0,.06,0-.07,0,0a.34.34,0,1,0,.5.47,1.26,1.26,0,0,0,.27-.76,1.57,1.57,0,0,0-.19-.71,1.68,1.68,0,0,0-1.12-.86,1.28,1.28,0,0,0-.86.15.34.34,0,1,0,.37.58Z"></path><path class="cls-13" d="M537.66,146.39A37.19,37.19,0,0,0,549.2,145a26.62,26.62,0,0,0,9.32-4.39,14,14,0,0,0,3.55-4c.23-.39-.38-.71-.61-.33a15.88,15.88,0,0,1-7.09,6.07,34.3,34.3,0,0,1-10.39,3,37.36,37.36,0,0,1-6.34.3c-.45,0-.42.67,0,.69Z"></path><path class="cls-13" d="M527.68,117.19l3.26,2.38a10.55,10.55,0,0,0,2.89,1.74,12.8,12.8,0,0,0,3.55.24,10.85,10.85,0,0,1,3.29.59,11.25,11.25,0,0,1,3.4,1.89c.34.28.81-.23.46-.51a11.86,11.86,0,0,0-6-2.58c-1.17-.14-2.34,0-3.5-.1a6.28,6.28,0,0,1-3.19-1.46l-3.69-2.69c-.35-.26-.82.24-.47.5Z"></path><path class="cls-13" d="M526.08,132.23l6.28,7.3c.29.33.75-.17.47-.51q-3.14-3.65-6.28-7.3c-.29-.33-.75.18-.47.51Z"></path><path class="cls-13" d="M494.12,221.33a3.33,3.33,0,0,0,5.25-1.7.34.34,0,0,0-.67-.16,2.64,2.64,0,0,1-4.11,1.36c-.33-.29-.8.21-.47.5Z"></path><path class="cls-13" d="M518.11,221a5,5,0,0,0,6.66,2.17c.39-.21,0-.79-.37-.59a4.34,4.34,0,0,1-5.7-2c-.2-.4-.78,0-.59.37Z"></path><path class="cls-6" d="M304,184l-8.48-8.87a1.87,1.87,0,0,0-1.31-.76,1.85,1.85,0,0,0-1.15.7l-27.3,27.67a40.11,40.11,0,0,0,9.88,6.79l26.57-24Z"></path><path class="cls-15" d="M360.83,224.58q-17.46,1.47-34.84,3.71a3.14,3.14,0,0,0-2.51,1.18c1.27,1.07,19,3.52,26.21,4.14a30.26,30.26,0,0,0,7,0c4.41-.53,7.5-5.65,11.39-7.79a8.23,8.23,0,0,0-6.36-2.26Z"></path><path class="cls-16" d="M281.39,195.52l9.17-96.58A11.59,11.59,0,0,1,302.9,88.47l116.94,8.09a11.6,11.6,0,0,1,10.71,13l-10.47,84.11A11.59,11.59,0,0,1,409,203.82L293.37,208.2A11.6,11.6,0,0,1,281.39,195.52Z"></path><path class="cls-17" d="M351.52,187.1c-.26-.5-1-.25-1.47.08a9.16,9.16,0,0,0-3.65,4.34c-.59,1.83.06,4.17,1.83,4.93a3.8,3.8,0,0,0,3.65-.56,7.09,7.09,0,0,0,2.24-3.09,5.59,5.59,0,0,0,.11-4.76c-.81-1.43-3-2.06-4.14-.84Z"></path><path class="cls-3" d="M348.44,191.36a16.61,16.61,0,0,0,8.05,5.1,4.62,4.62,0,0,0,2.75.11,2,2,0,0,0,1.41-2.13,18.51,18.51,0,0,1-8.42-4.16,1.67,1.67,0,0,0-.85-.49,1.2,1.2,0,0,0-.59.09,4.35,4.35,0,0,0-2,1.44Z"></path><path class="cls-17" d="M360.26,222c.22-4.48-.89-8.91-1.77-13.31-3.91-19.44-3.68-40-11.45-58.21,0,0,22.85-.14,23.06.41,5,13.26,9,26.86,13,40.45l5.54,18.74q1.25,4.26,2.51,8.52c.79,2.68,1.55,5.69.24,8.16-1.59,2.95-5.38,3.75-8.7,4.19q-14,1.84-28.19,2.68C358.25,231.13,360,226.46,360.26,222Zm2.4-30.89a10,10,0,0,0,4,7.15c2.1,1.65,5.18,2.61,7.43,1.15a5.62,5.62,0,0,0,2.31-4.5,13.58,13.58,0,0,0-1-5.12A13,13,0,0,0,373.7,187a6.72,6.72,0,0,0-6.45-2.59,1.2,1.2,0,0,0-.31.07A6.65,6.65,0,0,0,362.66,191.09Z"></path><path class="cls-3" d="M365.88,197.63c2.66.93,6-.84,9,10.53.72,2.72,1.12,21.72,6.76,28.89a9.51,9.51,0,0,0,3.47,3.06l.05,0a1.22,1.22,0,0,0,1.2-2.09c-2.64-2-4.16-5.73-5.09-9.1a116.55,116.55,0,0,1-3.48-18c-.41-3.61-.7-7.4-2.68-10.44s-7.75-7.19-10.76-5.17Z"></path><path class="cls-6" d="M419.49,100.91a8.26,8.26,0,0,1,5.68,2.92,9.67,9.67,0,0,1,2.38,6,7.59,7.59,0,0,1-.8,3.6.53.53,0,0,1-.72.19.53.53,0,0,1-.19-.72,5,5,0,0,0,.27-.63q.12-.35.21-.72a3.4,3.4,0,0,0,.07-.34l0-.16s0-.07,0-.1,0,.07,0,0q0-.37.06-.75c0-.24,0-.48,0-.72l0-.38s0-.15,0-.07l0-.21a10.57,10.57,0,0,0-.38-1.47,7.39,7.39,0,0,0-.59-1.29c-.12-.22-.25-.44-.39-.65l-.21-.3-.09-.13-.07-.08s0,0,0,0a8.94,8.94,0,0,0-1-1.1l-.27-.23-.15-.12c-.06,0,0,0-.08-.07s-.41-.29-.63-.42-.48-.27-.73-.39l-.31-.13-.38-.14q-.4-.12-.81-.21l-.21,0-.08,0c-.1,0,.12,0-.05,0l-.44,0a.53.53,0,0,1,0-1.06Z"></path><path class="cls-6" d="M301.5,92.28a9.53,9.53,0,0,0-4.32,4,10.54,10.54,0,0,0-1.39,5.79,8.21,8.21,0,0,0,.23,1.62,8.64,8.64,0,0,0,.24.83,8.11,8.11,0,0,0,.29.76.53.53,0,1,1-.91.53A10.72,10.72,0,0,1,295,99.3a11.66,11.66,0,0,1,3-5.79,10.09,10.09,0,0,1,3-2.14.55.55,0,0,1,.72.19.53.53,0,0,1-.19.72Z"></path><path class="cls-6" d="M292.77,141.87q-.48,5.85-1,11.71t-1,11.76q-.27,3.3-.55,6.6a.54.54,0,0,1-.53.53.52.52,0,0,1-.52-.53q.48-5.85,1-11.71l1-11.76q.27-3.3.55-6.6a.53.53,0,1,1,1,0Z"></path><path class="cls-6" d="M329.24,202.05l-9.42.4-9.42.41-9.42.4c-2.87.12-5.93.44-8.68-.6a6.69,6.69,0,0,1-4.49-5.34,4.92,4.92,0,0,1,0-.86.55.55,0,0,1,.53-.53.52.52,0,0,1,.52.53,4.29,4.29,0,0,0,.83,3,6.29,6.29,0,0,0,2.54,2.05,10.59,10.59,0,0,0,3.91.81c1.43.07,2.86,0,4.29-.08l9.2-.4,9.2-.39,9.25-.39,1.14-.05a.52.52,0,0,1,.52.52.53.53,0,0,1-.52.53Z"></path><path class="cls-6" d="M416.45,190.39a7.41,7.41,0,0,1-3.63,6.57,6.76,6.76,0,0,1-2.06.81.53.53,0,0,1-.28-1,6.33,6.33,0,0,0,4.69-4.44,5.39,5.39,0,0,0,.22-1.92.53.53,0,0,1,1.06,0Z"></path><path class="cls-4" d="M4.44,531.54c-2.81,0-4.91-3.38-4.35-7L43.93,243.07H57.41L8.77,527C8.31,529.65,6.51,531.54,4.44,531.54Z"></path><path class="cls-4" d="M541.76,531.54c3.38,0,5.92-3.38,5.24-7L494.09,243.07H477.82L536.53,527A5.48,5.48,0,0,0,541.76,531.54Z"></path><path class="cls-5" d="M252.71,29.17a325.79,325.79,0,0,1-6.56,49.48c-1,4.92-2.36,10.12-6,13.54-6.1,5.67-15.79,4.12-23.77,1.73,0,.08-5.33,20.83-7.23,22.06-1.57,1-3.56,1.06-5.43,1-4.68-.07-20.32-2.74-21.09-8.92-1-8.16,5.4-22,6.66-30.16-2.32,2.89-7.26,2.47-9.83-.19S176.31,71,177,67.31s2.59-7.15,5.86-8.78,7.91-.57,9.38,2.77q4.42-20.88,8.87-41.77Z"></path><path class="cls-17" d="M304.13,229.43a30.59,30.59,0,0,0-55.34-1.07Z"></path><path class="cls-5" d="M162.09,195c4.19-4.38.29-6,6.27-4.94,22.43,4,50.09,13.88,70.63,15.73a30,30,0,0,0,8.77-.08c3-.65,5.79-2.23,8.75-3.16,7-2.2,14.75-.56,21.25,2.83a55.68,55.68,0,0,1,9.07,6.08,2.69,2.69,0,0,1-2.66,4.6,41.89,41.89,0,0,1-6-2.94,18.73,18.73,0,0,1,6.15,3.24,2.69,2.69,0,0,1-1.85,4.8,22.85,22.85,0,0,1-11.6-4.25,14.54,14.54,0,0,1,5.53,4.45,1.41,1.41,0,0,1-1.21,2.25,20.56,20.56,0,0,1-12.32-5.13c1.24,1.42,2.54,3,2.49,5a3,3,0,0,1-1.22,2.36c-1.21.84-2.37.3-3.4-.25a38.37,38.37,0,0,1-7.1-5c-4.62,6.13-15.28,6.1-19.87-.06L166,225.34c-2.8.2,4.3,0,1.65-.93a15.52,15.52,0,0,1-5.83-4.1l-.13-.13c-6.61-7-4.15-12.16,2.48-19.1Z"></path><polygon class="cls-18" points="216.34 93.92 197.65 86.41 214.53 101.69 216.34 93.92"></polygon><path class="cls-15" d="M189,69l-4.68-6.14a.56.56,0,0,0-.74-.19.54.54,0,0,0-.19.74L188,69.54a.56.56,0,0,0,.74.2A.54.54,0,0,0,189,69Z"></path><path class="cls-15" d="M185,66.34a11.5,11.5,0,0,1-2.65,4.9c-.47.51.3,1.28.77.77a12.82,12.82,0,0,0,2.92-5.38.54.54,0,0,0-1-.29Z"></path><path class="cls-15" d="M232.18,56.31a30.65,30.65,0,0,1-1.36,16,32.08,32.08,0,0,1-1.9,4.18l.73-.2a13.36,13.36,0,0,0-5.3-1.94.56.56,0,0,0-.66.38.54.54,0,0,0,.38.66,12.66,12.66,0,0,1,5,1.83.54.54,0,0,0,.74-.19,31.51,31.51,0,0,0,3.37-21c-.13-.69-1.17-.4-1,.28Z"></path><path d="M215.05,61.3c-.13,1.84.83,3.4,2.13,3.49s2.46-1.32,2.59-3.16-.83-3.41-2.13-3.5S215.18,59.46,215.05,61.3Z"></path><path d="M239.09,65.34c-.12,1.84.83,3.4,2.14,3.49s2.46-1.33,2.58-3.17-.82-3.4-2.13-3.49S239.22,63.5,239.09,65.34Z"></path><path class="cls-10" d="M216,70.65A9.63,9.63,0,1,1,225.61,61,9.63,9.63,0,0,1,216,70.65Zm0-18.53a8.91,8.91,0,1,0,8.9,8.91A8.92,8.92,0,0,0,216,52.12Z"></path><path class="cls-10" d="M242.66,75.47a9.63,9.63,0,1,1,9.63-9.63A9.64,9.64,0,0,1,242.66,75.47Zm0-18.53a8.91,8.91,0,1,0,8.91,8.9A8.91,8.91,0,0,0,242.66,56.94Z"></path><path class="cls-10" d="M233.19,62.81a4.71,4.71,0,0,0-7.55-1.12c-.45.52.31,1.29.76.76a3.63,3.63,0,0,1,5.85.9.55.55,0,0,0,.74.2.56.56,0,0,0,.2-.74Z"></path><path class="cls-10" d="M207.34,58.28,188,55.69a.56.56,0,0,0-.67.37.55.55,0,0,0,.38.67l19.33,2.6a.56.56,0,0,0,.66-.38.55.55,0,0,0-.37-.67Z"></path><path d="M193.88,68.7q7.13-23,14.26-45.89c13.67,8.66,29.26,17.7,45.05,14.19A12.69,12.69,0,0,0,260,33.55c1.73-1.93,2.35-5,.82-7.14s-5.38-2.11-6.42.27a20.83,20.83,0,0,0,9.72-8.26,5.58,5.58,0,0,0,1.08-4c-.7-3.08-5.16-3.3-8-1.86s-5.38,3.87-8.53,3.74a35.18,35.18,0,0,0,6.62-10c.66-1.5,1.2-3.29.39-4.72-1.54-2.74-5.71-1.32-8.36.37-7.29,4.63-15.81,9.09-24.18,7-4.89-1.25-9.06-4.66-14-5.69s-11.47,2.25-10.64,7.23c-3.63-5-12.65-4-15.22,1.54a18.13,18.13,0,0,0-1.21,6l-3.91,45a8,8,0,0,1,14.85,4.78Z"></path><path d="M224.67,42.77c1.24,1.23-.17,3.48-1.88,3.81s-3.41-.45-5.12-.8a20.76,20.76,0,0,0-7.6.38,11.18,11.18,0,0,1,14.83-4.35Z"></path><path d="M239.07,48.33c-1.23,1.22.17,3.48,1.88,3.81s3.41-.46,5.12-.8a20.75,20.75,0,0,1,7.6.38,11.16,11.16,0,0,0-14.83-4.35Z"></path><path class="cls-15" d="M225.58,79.66a9.44,9.44,0,0,1-4.28-4.79.57.57,0,0,0-.67-.38.53.53,0,0,0-.37.66A10.56,10.56,0,0,0,225,80.59c.61.33,1.15-.6.54-.93Z"></path><path class="cls-15" d="M266.64,220.62A18.64,18.64,0,0,0,255,210.76a.54.54,0,0,0-.29,1,17.53,17.53,0,0,1,11,9.36c.3.63,1.23.08.94-.54Z"></path><path class="cls-15" d="M276.66,221c-2.37-4.6-5.39-9.08-9.69-12.08a19,19,0,0,0-3.86-2.09c-.64-.26-.92.78-.29,1,4.66,1.9,8.14,5.72,10.77,9.9.77,1.22,1.48,2.49,2.14,3.78.32.61,1.25.07.93-.55Z"></path><path class="cls-15" d="M285.17,216.06a29.57,29.57,0,0,0-14.85-9.41.54.54,0,0,0-.29,1,28.58,28.58,0,0,1,14.38,9.13c.45.54,1.21-.23.76-.76Z"></path><path class="cls-15" d="M269.75,203.71a28.42,28.42,0,0,0-6.93,2.65c-2.45,1.22-4.82,2.59-7.19,4-1.14.66-2.27,1.33-3.43,2a.54.54,0,0,0,.55.93c4.49-2.47,8.81-5.34,13.57-7.29a21.16,21.16,0,0,1,3.72-1.18c.68-.14.39-1.18-.29-1Z"></path><path class="cls-19" d="M357.36,362.25q-.67-17.21-1.36-34.4c-.21-5.33-.25-10.69-.81-16-.52-5-1.62-9.94-4.25-14.24-4.95-8.1-13.85-12.64-21.85-17.14q-14.73-8.28-29.63-16.27t-30-15.73l-3.71-1.9c-1.24-.63-2.33,1.24-1.09,1.87q15,7.61,29.78,15.5t29.37,16c4.43,2.47,8.91,4.88,13.21,7.57A41.48,41.48,0,0,1,347.17,296c6.45,7.82,6.15,18.48,6.52,28.06L355,358.14l.16,4.11c.05,1.39,2.21,1.39,2.16,0Z"></path><path class="cls-19" d="M296.74,322.85A98.57,98.57,0,0,0,286,340.61c-.85,1.82-1.65,3.67-2.39,5.53a1.08,1.08,0,0,0,.75,1.33,1.11,1.11,0,0,0,1.33-.75,96.68,96.68,0,0,1,9.55-18c1.08-1.62,2.22-3.19,3.4-4.74a1.09,1.09,0,0,0-.39-1.48,1.12,1.12,0,0,0-1.48.39Z"></path><path class="cls-19" d="M287.57,323.25l-6.67,21.61c-.41,1.33,1.68,1.9,2.09.57l6.66-21.61c.41-1.33-1.68-1.9-2.08-.57Z"></path><path class="cls-19" d="M180.49,257.86c-.59,7.33,3.79,13.43,9.34,17.76,6.53,5.09,14.25,8.05,21.87,11.11l29.93,12c9.32,3.75,18.78,7.26,27.9,11.47,8.2,3.79,16.06,8.45,22.31,15.06a62.79,62.79,0,0,1,12.57,20.24c6,15.23,7.51,31.88,8,48.11a597.21,597.21,0,0,1-1.33,60.87q-.27,3.9-.59,7.8c-.11,1.39,2.05,1.38,2.16,0,1.65-20.46,2.45-41,2.09-61.5-.3-16.72-1.13-33.77-6.15-49.84a73,73,0,0,0-10.29-21.23,61.14,61.14,0,0,0-19.24-17c-8.2-4.74-17.12-8.09-25.88-11.61l-29.93-12L208.11,283a93.2,93.2,0,0,1-10.6-4.88c-6-3.36-12.62-8.14-14.46-15.19a14.75,14.75,0,0,1-.4-5c.11-1.38-2.05-1.38-2.16,0Z"></path><path class="cls-19" d="M354.71,464.22q-9.72.7-19.47.53t-19.35-1.21q-5.42-.59-10.81-1.45a1.1,1.1,0,0,0-1.32.75,1.08,1.08,0,0,0,.75,1.33q9.72,1.56,19.55,2.25c6.53.46,13.09.62,19.64.48q5.52-.12,11-.52a1.08,1.08,0,1,0,0-2.16Z"></path><path class="cls-19" d="M439.21,397.41q-9.12,4.89-18.69,8.89t-19.64,7.13q-5.6,1.74-11.3,3.18a1.08,1.08,0,0,0,.58,2.08q10.17-2.56,20.07-6.1t19.5-8q5.36-2.51,10.57-5.29c1.23-.66.14-2.52-1.09-1.87Z"></path><path class="cls-19" d="M404.53,406.22a191,191,0,0,0-6.61-18.06q-3.85-9.15-8.48-17.94t-9.95-17.41c-3.47-5.63-7.14-11.14-11-16.54s-7.68-10.5-11.75-15.58l-1.46-1.81a1.08,1.08,0,0,0-1.52,0,1.11,1.11,0,0,0,0,1.53q6,7.38,11.55,15.11,5.76,8,11,16.36t10,17.19c3.1,5.78,6,11.68,8.61,17.7,2.53,5.82,4.81,11.76,6.75,17.8.23.74.47,1.48.69,2.22.41,1.32,2.49.76,2.09-.57Z"></path><path class="cls-6" d="M201.08,128.75a18.3,18.3,0,0,0-3.82-5.74,2.85,2.85,0,0,0-1.68-1,3.16,3.16,0,0,0-2.22,1.12l-6.94,6.38c-4.49-5.6-8.86-11.74-9.86-18.85S179,95.3,185.9,93.23c-1.57,4.81-2.51,10.44.27,14.67,1.69,2.56,4.48,4.17,7.31,5.34,4.75,2,10.46,2.87,14.83.18,4.8-2.94,6.14-10.21,7.31-15.71,3.89,3.67,5.66,10.54,5.24,15.88s-2.59,10.39-5.17,15.08a69,69,0,0,0-4.5-5.31,1.86,1.86,0,0,0-3.2-.19l-6,5.69Z"></path><path class="cls-6" d="M202.13,120c-1.14,5.84-2.21,11.8-.77,17.68a52.82,52.82,0,0,0,2.9,8.07q1.63,3.84,3.36,7.63c2.31,5.13,4.7,10.22,7,15.35s4.51,10.27,6.46,15.54a127.64,127.64,0,0,1,4.82,15.93c.15.69.3,1.38.44,2.07s1.18.4,1-.28a119.24,119.24,0,0,0-4.52-15.95c-1.85-5.21-4-10.33-6.21-15.39s-4.61-10.14-6.92-15.21c-1.15-2.53-2.3-5.06-3.41-7.61s-2.28-5.19-3.18-7.87a26.71,26.71,0,0,1-1.43-8.54,50.15,50.15,0,0,1,1-8.89c.14-.75.28-1.49.43-2.24s-.91-1-1-.29Z"></path><path class="cls-6" d="M183,191.45c-6.61,2.77-8.32,7.46-10.57,14.29s-2.2,14.23-1.14,21.35l-8.88-.37a4.12,4.12,0,0,1-2.06-.45,4,4,0,0,1-1.41-2.55,59.23,59.23,0,0,1-1.78-16.45,28.75,28.75,0,0,1,.79-6.4c1.84-7.14,6.16-10.55,11.9-15.17Z"></path><path class="cls-6" d="M173.66,187.8q-7.46-1.52-14.88-3.14c-4.18-.92-8.37-1.86-12.56-2.75-3.06-.66-6.13-1.29-9.19-1.91-.68-.14-1,.9-.29,1q7.45,1.5,14.88,3.14c4.18.92,8.37,1.86,12.56,2.75q4.59,1,9.19,1.91c.68.14,1-.9.29-1Z"></path><path class="cls-6" d="M146.9,123.29a183.46,183.46,0,0,1,4.31,22.77,184.36,184.36,0,0,1,1.42,23q0,6.51-.47,13c0,.69,1,.69,1.08,0a185,185,0,0,0,.19-23.31,186.44,186.44,0,0,0-2.69-23Q149.57,129.38,148,123a.54.54,0,0,0-1,.28Z"></path><path class="cls-6" d="M245.36,106.15l4.56,17.74,4.56,17.74c1.49,5.8,3,11.6,4.16,17.47A130.93,130.93,0,0,1,260.9,177c.35,6,.35,12,.25,18,0,.75,0,1.5,0,2.24a.54.54,0,0,0,1.08,0c.13-6,.18-12.08-.09-18.12a133,133,0,0,0-2-17.93c-1.07-5.89-2.52-11.7-4-17.49s-3.05-11.86-4.57-17.79S248.5,114,247,108.07l-.57-2.2a.54.54,0,0,0-1,.28Z"></path><path class="cls-6" d="M254.79,113.74a30.55,30.55,0,0,1-5.24,7.84c-.47.51.3,1.27.77.76a31.52,31.52,0,0,0,5.4-8.06c.29-.63-.64-1.17-.93-.54Z"></path><path class="cls-6" d="M194.07,156.76c-4.26,1.16-8.81.67-13.16.49l-13.66-.54-7.77-.31c-.7,0-.7,1,0,1.07l13.93.56c4.53.18,9.06.46,13.6.52a26.33,26.33,0,0,0,7.35-.75.54.54,0,0,0-.29-1Z"></path><path class="cls-6" d="M226.19,163.69q-12.3,10.8-23.52,22.72-3.19,3.39-6.3,6.88c-.46.51.3,1.28.77.76Q208,181.84,220,170.7q3.42-3.18,6.92-6.25c.52-.46-.24-1.22-.76-.76Z"></path><path class="cls-6" d="M226.56,173.31a98.88,98.88,0,0,0-17.27,13.78q-2.21,2.22-4.28,4.58c-.46.52.3,1.28.76.76A97.63,97.63,0,0,1,222,177.7c1.67-1.2,3.39-2.36,5.13-3.46.59-.37.05-1.3-.54-.93Z"></path><path class="cls-19" d="M201.3,254a21.75,21.75,0,0,1-8.2,20.53,1.07,1.07,0,0,0,0,1.52,1.11,1.11,0,0,0,1.53,0,24.11,24.11,0,0,0,9-17,23.42,23.42,0,0,0-.26-5.61,1.08,1.08,0,0,0-2.08.58Z"></path><path class="cls-6" d="M364.92,498.27c-12.14,6.06-16,17.32-19.59,31.33a79.66,79.66,0,0,0,44.11,4.55c1.3-.24,2.76-.64,3.37-1.9s.11-2.75-.4-4c-4.84-12.28-18.25-21-27.51-29.88Z"></path><path class="cls-4" d="M366.58,502.31a46.53,46.53,0,0,0-14.2,22.22.54.54,0,0,0,1,.29,45.6,45.6,0,0,1,9.84-17.73,44.33,44.33,0,0,1,4.09-4c.52-.45-.24-1.21-.77-.76Z"></path><path class="cls-4" d="M458.2,436.56a46.42,46.42,0,0,0-6.5,22.27,45.13,45.13,0,0,0,.29,6.67c.08.68,1.16.69,1.08,0A45.39,45.39,0,0,1,456.19,443a43.71,43.71,0,0,1,2.94-5.84.54.54,0,0,0-.93-.55Z"></path><path class="cls-4" d="M331.31,489.75a5.37,5.37,0,0,1-2.83,7.06c-.64.24-.36,1.29.29,1a6.45,6.45,0,0,0,3.47-8.64c-.3-.63-1.23-.08-.93.54Z"></path><path class="cls-3" d="M115.31,254.21c3.19-1.49,6.38-3,9.64-4.32,25.62-10.55,55.8-11.13,80.62,1.19s43.12,38.23,43.62,65.93c.2,11.05-2.93,23.1-11.89,29.56-10.64,7.67-25.44,4.94-37.75.41A167.51,167.51,0,0,1,112,272.17Z"></path><rect class="cls-20" x="16.53" y="225.72" width="530.59" height="17.35" rx="4.55"></rect><path class="cls-21" d="M237.47,301.13a33.51,33.51,0,0,1,2.77,15.53,35.73,35.73,0,0,1-4.35,15.2,32.56,32.56,0,0,1-5.38,7.18c-.49.49.28,1.25.77.76a34.85,34.85,0,0,0,8.38-14A36.87,36.87,0,0,0,241,309.45a33.58,33.58,0,0,0-2.59-8.87c-.28-.63-1.21-.08-.93.55Z"></path><path class="cls-21" d="M228.29,316.81a12.56,12.56,0,0,1-4.51,8.67c-.54.44.23,1.2.76.76a13.59,13.59,0,0,0,4.83-9.43c0-.69-1-.69-1.08,0Z"></path><path class="cls-21" d="M212.67,317.84c-1.2,2.23-2.41,4.46-3.61,6.7-.33.61.6,1.15.93.54l3.62-6.7c.33-.61-.61-1.15-.94-.54Z"></path><path class="cls-21" d="M155.75,273.56c-.47,2.63-.93,5.27-1.4,7.9-.12.68.92,1,1,.29.47-2.63.93-5.27,1.4-7.9.12-.68-.92-1-1-.29Z"></path><path class="cls-21" d="M143,272.53v3.41a.54.54,0,0,0,1.08,0v-3.41a.55.55,0,0,0-.54-.54.56.56,0,0,0-.54.54Z"></path><path class="cls-21" d="M130.73,263.09a9,9,0,0,0-2.45,7.17.57.57,0,0,0,.54.54.53.53,0,0,0,.54-.54,8,8,0,0,1,2.13-6.41c.48-.5-.28-1.26-.76-.76Z"></path><path class="cls-21" d="M144.05,77.68a20.43,20.43,0,0,1,2.14,16.5,19,19,0,0,1-1.94,4.4.54.54,0,0,0,.93.54,21.45,21.45,0,0,0,1.93-17.37A20.09,20.09,0,0,0,145,77.14c-.37-.59-1.3,0-.93.54Z"></path><path class="cls-21" d="M130.82,107.89c-.78,1.88-1.56,3.77-2.33,5.65a.54.54,0,0,0,.38.66.55.55,0,0,0,.66-.37q1.16-2.83,2.33-5.65a.55.55,0,0,0-.38-.67.56.56,0,0,0-.66.38Z"></path><path class="cls-21" d="M118.23,115.78c-.78,2.27-1.55,4.53-2.32,6.8-.23.66.82.94,1,.28l2.32-6.79c.22-.66-.82-.94-1-.29Z"></path><path class="cls-21" d="M132.84,95.13,128.31,102c-.39.58.55,1.12.93.55l4.53-6.82c.39-.58-.55-1.12-.93-.55Z"></path><path class="cls-3" d="M102.94,156l-10.39-4.1c-.65-.25-.93.79-.29,1l10.39,4.1c.65.25.93-.79.29-1Z"></path><path class="cls-3" d="M101.72,161.9l-6.81-2.27c-.66-.22-.94.82-.29,1l6.81,2.27c.66.22.95-.82.29-1Z"></path><path class="cls-3" d="M158.55,71.5,150.87,60c-.38-.57-1.32,0-.93.55l7.68,11.53c.38.57,1.31,0,.93-.55Z"></path><path class="cls-3" d="M155.25,71.29l-9-8c-.51-.46-1.28.3-.76.76l9,8c.52.46,1.28-.3.76-.77Z"></path><path class="cls-3" d="M108.07,268.56a47.82,47.82,0,0,0-13.66,9.29c-.5.49.26,1.25.76.77a47.15,47.15,0,0,1,13.44-9.13c.64-.28.09-1.22-.54-.93Z"></path><path class="cls-3" d="M104.12,266.94a11.79,11.79,0,0,0-10.78,3c-.5.48.26,1.25.76.76a10.7,10.7,0,0,1,9.73-2.75c.68.15,1-.89.29-1Z"></path><path class="cls-3" d="M156.74,324.48q-3,6.16-6,12.32c-.31.63.62,1.17.93.55q3-6.17,6-12.32c.31-.62-.62-1.17-.93-.55Z"></path><path class="cls-3" d="M148.87,325.51l-4.54,5.67a.54.54,0,0,0,.77.77q2.27-2.85,4.54-5.68a.56.56,0,0,0,0-.76.55.55,0,0,0-.77,0Z"></path><path class="cls-6" d="M153.61,183.38a49.68,49.68,0,0,0-12.14-12.19c-.56-.4-1.1.53-.54.93a48.6,48.6,0,0,1,11.75,11.8c.4.57,1.33,0,.93-.54Z"></path><path class="cls-6" d="M120.29,191.78c-.41,1.88-.82,3.77-1.22,5.65-.15.68.89,1,1,.29q.6-2.82,1.22-5.66c.14-.67-.9-1-1-.28Z"></path><path class="cls-6" d="M117,180.44c-.38,1.14-.76,2.27-1.13,3.41a.54.54,0,0,0,.37.66.56.56,0,0,0,.67-.38c.37-1.13.75-2.27,1.13-3.4a.55.55,0,0,0-.38-.67.56.56,0,0,0-.66.38Z"></path><path class="cls-6" d="M241.94,147.26a5.42,5.42,0,0,0-1.2,5.07.54.54,0,0,0,1-.28,4.33,4.33,0,0,1,.92-4,.54.54,0,1,0-.76-.77Z"></path><path class="cls-6" d="M230.45,139.72v4.54a.54.54,0,0,0,1.08,0v-4.54a.54.54,0,0,0-1.08,0Z"></path><path class="cls-6" d="M267.84,153.69a6.21,6.21,0,0,1,.2,5.23.54.54,0,0,0,1,.29,7.26,7.26,0,0,0-.31-6.06c-.32-.62-1.26-.07-.93.54Z"></path><path class="cls-6" d="M237.26,125v3.4a.54.54,0,0,0,.54.54.54.54,0,0,0,.54-.54V125a.54.54,0,0,0-1.08,0Z"></path><path class="cls-6" d="M165.82,130.36q-1.14,2.28-2.27,4.54a.56.56,0,0,0,.19.74.55.55,0,0,0,.74-.19l2.27-4.54a.56.56,0,0,0-.19-.74.55.55,0,0,0-.74.19Z"></path><path class="cls-6" d="M157.82,122.55l-1.14,3.4a.56.56,0,0,0,.38.67.55.55,0,0,0,.66-.38l1.14-3.41a.54.54,0,1,0-1-.28Z"></path></g></g></svg>