<svg xmlns="http://www.w3.org/2000/svg" viewBox="0 0 100 100" width="400" height="400"><path d="M72 12C66.369146 12 62.923309 15.163054 62.099609 16L51.328125 16C50.284179 16 49.258536 16.272745 48.351562 16.791016 A 1.0001 1.0001 0 0 0 48.316406 16.810547L43.212891 20L37 20 A 1.0001 1.0001 0 0 0 36 21L27.5 21C17.85961 21 10 28.85961 10 38.5C10 48.14039 17.85961 56 27.5 56L62.5 56C68.298604 56 73 60.701396 73 66.5C73 72.298604 68.298604 77 62.5 77L30 77 A 1.0001 1.0001 0 1 0 30 79L62.5 79C69.383396 79 75 73.383396 75 66.5C75 59.616604 69.383396 54 62.5 54L27.5 54C18.94439 54 12 47.05561 12 38.5C12 29.94439 18.94439 23 27.5 23L36 23L36 26L27.5 26C20.616604 26 15 31.616604 15 38.5C15 45.383396 20.616604 51 27.5 51L62.5 51C71.05561 51 78 57.94439 78 66.5C78 75.05561 71.05561 82 62.5 82L30 82 A 1.0001 1.0001 0 1 0 30 84L62.5 84C72.14039 84 80 76.14039 80 66.5C80 56.85961 72.14039 49 62.5 49L27.5 49C21.701396 49 17 44.298604 17 38.5C17 32.701396 21.701396 28 27.5 28L36 28 A 1.0001 1.0001 0 0 0 37 29L43.212891 29L48.318359 32.189453 A 1.0001 1.0001 0 0 0 48.353516 32.210938C49.259191 32.728645 50.283396 32.998801 51.324219 33L69 33 A 1.0001 1.0001 0 0 0 70 32L70 29L85.5 29 A 0.50005 0.50005 0 0 0 86 28.5L86 20.5 A 0.50005 0.50005 0 0 0 85.5 20L82.605469 20L73.703125 16.042969 A 0.50005 0.50005 0 0 0 73.458984 15.998047 A 0.50005 0.50005 0 0 0 73.296875 16.957031L80.144531 20L70 20L70 17 A 1.0001 1.0001 0 0 0 69 16L65.291016 16C66.784095 15.031058 69.044988 14 72 14 A 1.0001 1.0001 0 1 0 72 12 z M 51.328125 18L62.234375 18 A 1.0001 1.0001 0 0 0 62.708984 18L68 18L68 31L51.326172 31L51.324219 31C51.215259 30.999827 51.108068 30.987529 51 30.978516L51 22.5 A 0.50005 0.50005 0 0 0 50.492188 21.992188 A 0.50005 0.50005 0 0 0 50 22.5L50 30.763672C49.776474 30.684586 49.556953 30.592865 49.349609 30.474609L49.345703 30.474609L44.029297 27.152344 A 1.0001 1.0001 0 0 0 44 27.136719L44 21.865234 A 1.0001 1.0001 0 0 0 44.029297 21.847656L49.34375 18.527344L49.347656 18.527344C49.555917 18.408603 49.775996 18.315792 50 18.236328L50 19.5 A 0.50005 0.50005 0 1 0 51 19.5L51 18.021484C51.109202 18.012381 51.218001 18 51.328125 18 z M 70 21L82.464844 21 A 0.50005 0.50005 0 0 0 82.556641 21L85 21L85 28L70 28L70 21 z M 38 22L43 22L43 27L41 27L41 23.5 A 0.50005 0.50005 0 0 0 40.492188 22.992188 A 0.50005 0.50005 0 0 0 40 23.5L40 27L38 27L38 22 z" fill="#0055FF"></path></svg>