<svg xmlns="http://www.w3.org/2000/svg" viewBox="0 0 80 80" width="480" height="480"><path d="M29.324219 5.5859375L14.585938 20.324219L25.923828 31.662109L24.744141 32.84375C23.324088 34.263802 22.814578 36.234844 23.160156 38.076172C20.8505 37.433618 18.454401 37 15.941406 37C15.855546 37 15.619283 37.005699 15.388672 37.074219C15.15806 37.142759 14.940209 37.253135 14.689453 37.410156C14.187941 37.724199 13.516246 38.250124 12.34375 39.269531L11.535156 39.972656L22.339844 50.777344C20.936591 51.662062 20 53.22434 20 55C20 57.749516 22.250484 60 25 60C26.77566 60 28.337938 59.063409 29.222656 57.660156L40.027344 68.464844L40.730469 67.65625C41.749923 66.4837 42.275841 65.81215 42.589844 65.310547C42.746845 65.059745 42.85726 64.841786 42.925781 64.611328C42.994302 64.380869 43 64.144222 43 64.058594C43 61.547012 42.566057 59.150867 41.923828 56.841797C43.765154 57.187372 45.7362 56.677862 47.15625 55.257812L48.337891 54.078125L59.675781 65.414062L74.414062 50.675781L73.707031 49.96875L62.964844 39.226562C65.649354 35.963319 65.579101 31.165038 62.53125 28.117188L51.882812 17.46875C48.834961 14.420899 44.036681 14.350646 40.773438 17.035156L29.324219 5.5859375 z M 29.324219 8.4140625L40.662109 19.751953L41.53125 18.882812C44.008213 16.40585 47.991787 16.40585 50.46875 18.882812L61.117188 29.53125C63.59415 32.008213 63.594148 35.991787 61.117188 38.46875L60.248047 39.337891L71.585938 50.675781L59.675781 62.585938L48.337891 51.248047L45.742188 53.84375C44.445946 55.139991 42.486393 55.312914 40.992188 54.404297L38.576172 52.933594L39.53125 55.595703C40.480162 58.239582 40.999768 61.085117 41 64.056641C40.999677 64.056752 40.98499 64.105511 40.894531 64.25C40.777734 64.436578 40.26355 65.043119 39.892578 65.501953L14.498047 40.107422C14.956833 39.736425 15.563518 39.222242 15.75 39.105469C15.89442 39.015034 15.943313 39.000301 15.943359 39C18.915921 39.000231 21.760418 39.519838 24.404297 40.46875L27.066406 41.423828L25.597656 39.007812C24.689039 37.513607 24.861962 35.554054 26.158203 34.257812L28.751953 31.662109L17.414062 20.324219L29.324219 8.4140625 z M 39 20 A 1 1 0 0 0 38 21 A 1 1 0 0 0 39 22 A 1 1 0 0 0 40 21 A 1 1 0 0 0 39 20 z M 36 23 A 1 1 0 0 0 35 24 A 1 1 0 0 0 36 25 A 1 1 0 0 0 37 24 A 1 1 0 0 0 36 23 z M 33 26 A 1 1 0 0 0 32 27 A 1 1 0 0 0 33 28 A 1 1 0 0 0 34 27 A 1 1 0 0 0 33 26 z M 30 29 A 1 1 0 0 0 29 30 A 1 1 0 0 0 30 31 A 1 1 0 0 0 31 30 A 1 1 0 0 0 30 29 z M 59 40 A 1 1 0 0 0 58 41 A 1 1 0 0 0 59 42 A 1 1 0 0 0 60 41 A 1 1 0 0 0 59 40 z M 30 43 A 1 1 0 0 0 29 44 A 1 1 0 0 0 30 45 A 1 1 0 0 0 31 44 A 1 1 0 0 0 30 43 z M 56 43 A 1 1 0 0 0 55 44 A 1 1 0 0 0 56 45 A 1 1 0 0 0 57 44 A 1 1 0 0 0 56 43 z M 33 46 A 1 1 0 0 0 32 47 A 1 1 0 0 0 33 48 A 1 1 0 0 0 34 47 A 1 1 0 0 0 33 46 z M 53 46 A 1 1 0 0 0 52 47 A 1 1 0 0 0 53 48 A 1 1 0 0 0 54 47 A 1 1 0 0 0 53 46 z M 36 49 A 1 1 0 0 0 35 50 A 1 1 0 0 0 36 51 A 1 1 0 0 0 37 50 A 1 1 0 0 0 36 49 z M 50 49 A 1 1 0 0 0 49 50 A 1 1 0 0 0 50 51 A 1 1 0 0 0 51 50 A 1 1 0 0 0 50 49 z M 23.8125 52.25L27.748047 56.185547 A 1.0001 1.0001 0 0 0 27.728516 56.228516C27.257634 57.271666 26.22415 58 25 58C23.331516 58 22 56.668484 22 55C22 53.77585 22.728334 52.742366 23.771484 52.271484 A 1.0001 1.0001 0 0 0 23.8125 52.25 z M 3.9980469 52.695312 A 1.0001 1.0001 0 0 0 3.6132812 54.623047C13.420574 58.725112 21.274888 66.579426 25.376953 76.386719 A 1.0001 1.0001 0 1 0 27.220703 75.613281C22.914769 65.318574 14.681426 57.085231 4.3867188 52.779297 A 1.0001 1.0001 0 0 0 3.9980469 52.695312 z" fill="#0055FF"></path></svg>