<svg xmlns="http://www.w3.org/2000/svg" viewBox="0 0 100 100" width="400" height="400"><path d="M60.5 13 A 0.50005 0.50005 0 0 0 60 13.5L60 17.5 A 0.50005 0.50005 0 0 0 60.5 18C70.170772 18 78 25.829228 78 35.5 A 0.50005 0.50005 0 0 0 78.5 36L82.5 36 A 0.50005 0.50005 0 0 0 83 35.5C83 23.079767 72.920233 13 60.5 13 z M 61 14.050781C72.472332 14.318773 81.681227 23.527668 81.949219 35L78.949219 35C78.682235 25.195356 70.804644 17.317765 61 17.050781L61 14.050781 z M 30.421875 19 A 1.0001 1.0001 0 0 0 29.728516 19.292969C17.022119 31.999365 16.7774 52.468223 28.978516 65.484375L21.115234 78L21 78C18.802666 78 17 79.802666 17 82L17 86 A 1.0001 1.0001 0 0 0 18 87L44 87 A 1.0001 1.0001 0 0 0 45 86L45 82C45 79.802666 43.197334 78 41 78L41 73.671875C52.937829 78.381442 67.059632 75.918117 76.707031 66.271484 A 1.0001 1.0001 0 0 0 76.707031 64.857422L61 49.150391L61 39.974609C62.195698 39.858001 63.198673 39.328984 63.873047 38.570312C64.639653 37.707881 65 36.597222 65 35.5C65 34.402778 64.639653 33.292119 63.873047 32.429688C63.106441 31.567256 61.916666 31 60.5 31C59.083334 31 57.893559 31.567256 57.126953 32.429688C56.476875 33.161025 56.134812 34.071224 56.041016 35L46.849609 35L31.142578 19.292969 A 1.0001 1.0001 0 0 0 30.421875 19 z M 30.505859 21.484375L74.513672 65.492188C65.042888 74.372258 51.435952 76.281612 40.222656 71.164062C39.941932 71.035592 39.662356 70.90274 39.384766 70.765625C39.251743 70.700009 39.118603 70.634048 38.986328 70.566406C38.687867 70.413651 38.392091 70.256653 38.097656 70.09375C37.978493 70.027815 37.860667 69.960202 37.742188 69.892578C37.445541 69.723334 37.149561 69.548847 36.857422 69.369141C36.743509 69.298987 36.630782 69.226061 36.517578 69.154297C36.222628 68.96756 35.930536 68.777657 35.640625 68.580078C35.539288 68.510914 35.438592 68.439641 35.337891 68.369141C35.047826 68.166375 34.759181 67.959894 34.474609 67.746094C34.345293 67.648787 34.217988 67.546862 34.089844 67.447266C33.840174 67.253507 33.590752 67.059866 33.345703 66.857422C33.094318 66.64947 32.847897 66.433896 32.601562 66.216797C32.488149 66.116955 32.37207 66.02171 32.259766 65.919922C31.881214 65.576476 31.508063 65.222906 31.142578 64.857422C31.107238 64.822082 31.047898 64.752442 30.953125 64.65625 A 1.0001 1.0001 0 0 0 30.939453 64.642578C19.189358 52.670524 19.090443 33.658227 30.505859 21.484375 z M 60.5 22 A 0.50005 0.50005 0 0 0 60 22.5L60 26.5 A 0.50005 0.50005 0 0 0 60.5 27C65.200833 27 69 30.799167 69 35.5 A 0.50005 0.50005 0 0 0 69.5 36L73.5 36 A 0.50005 0.50005 0 0 0 74 35.5C74 28.049805 67.950195 22 60.5 22 z M 61 23.050781C67.502554 23.311698 72.688302 28.497446 72.949219 35L69.898438 35C69.633268 30.178929 65.821071 26.366731 61 26.101562L61 23.050781 z M 60.5 33C61.416666 33 61.976893 33.307744 62.376953 33.757812C62.777013 34.207881 63 34.847222 63 35.5C63 36.152778 62.777013 36.792119 62.376953 37.242188C61.985348 37.682743 61.435365 37.983433 60.552734 37.996094 A 0.50005 0.50005 0 0 0 60.492188 37.992188 A 0.50005 0.50005 0 0 0 60.449219 37.996094C59.56535 37.983887 59.014963 37.683094 58.623047 37.242188C58.233866 36.804357 58.015671 36.186924 58.003906 35.552734 A 0.50005 0.50005 0 0 0 58.003906 35.443359C58.016508 34.810547 58.234667 34.194742 58.623047 33.757812C59.023107 33.307744 59.583334 33 60.5 33 z M 47.849609 36L56.041016 36C56.134812 36.928776 56.476875 37.838975 57.126953 38.570312C57.801327 39.328984 58.804302 39.858001 60 39.974609L60 48.150391L47.849609 36 z M 26.009766 36.994141 A 0.50005 0.50005 0 0 0 25.529297 37.40625C25.193069 39.157478 25 40.951947 25 42.78125C25 50.314062 27.937838 57.408541 33.265625 62.736328C37.541443 67.012146 42.865574 69.619623 48.416016 70.570312 A 0.50026397 0.50026397 0 1 0 48.583984 69.583984C43.228426 68.666674 38.098839 66.155479 33.972656 62.029297C28.828443 56.885084 26 50.054438 26 42.78125C26 41.022553 26.185946 39.290522 26.511719 37.59375 A 0.50005 0.50005 0 0 0 26.009766 36.994141 z M 30.427734 66.9375C33.026318 69.391221 35.923059 71.349053 39 72.804688L39 79L37.5 79 A 0.50005 0.50005 0 1 0 37.5 80L40 80L41 80C42.116666 80 43 80.883334 43 82L43 85L19 85L19 82C19 80.883334 19.883334 80 21 80L30.5 80 A 0.50005 0.50005 0 1 0 30.5 79L22.847656 79L30.427734 66.9375 z M 58.490234 69.470703 A 0.50005 0.50005 0 0 0 58.40625 69.480469C58.091726 69.541099 57.763605 69.587726 57.423828 69.640625 A 0.50005 0.50005 0 1 0 57.576172 70.628906C57.904395 70.577806 58.244274 70.530256 58.59375 70.462891 A 0.50005 0.50005 0 0 0 58.490234 69.470703 z M 55.494141 69.878906 A 0.50005 0.50005 0 0 0 55.458984 69.880859C54.482558 69.961089 53.500367 69.978745 52.513672 69.953125 A 0.50018689 0.50018689 0 1 0 52.486328 70.953125C53.501633 70.979495 54.521442 70.962726 55.541016 70.878906 A 0.50054901 0.50054901 0 0 0 55.494141 69.878906 z M 33.5 79 A 0.50005 0.50005 0 1 0 33.5 80L34.5 80 A 0.50005 0.50005 0 1 0 34.5 79L33.5 79 z" fill="#0055FF"></path></svg>