<svg xmlns="http://www.w3.org/2000/svg" viewBox="0 0 100 100" width="400" height="400"><path d="M46.439453 13.003906C45.428674 13.005937 44.408359 13.057656 43.380859 13.160156C28.970859 14.590156 17.239609 26.559531 16.099609 41.019531C15.549609 47.889531 17.249766 54.540234 21.009766 60.240234C24.269766 65.200234 26 70.82 26 76.5L26 84C26 84.55 26.45 85 27 85C27.55 85 28 84.55 28 84L28 76.5C28 70.43 26.159688 64.430625 22.679688 59.140625C19.169688 53.810625 17.579844 47.599688 18.089844 41.179688C19.090844 28.544688 28.743 17.93925 41 15.53125L41 40.5C41 40.523 41.010672 40.542453 41.013672 40.564453C38.011672 42.414453 36 45.722 36 49.5C36 55.121 40.443 59.710609 46 59.974609L46 62.5C46 65.532 48.468 68 51.5 68L70.050781 68C70.211781 69.43 71.032844 70.651469 72.214844 71.355469C70.532844 73.628469 67.877 75 65 75L59 75C58.45 75 58 75.45 58 76L58 84C58 84.55 58.45 85 59 85C59.55 85 60 84.55 60 84L60 77L65 77C68.747 77 72.191031 75.084703 74.207031 71.970703C74.306031 71.976703 74.4 72 74.5 72C76.981 72 79 69.981 79 67.5C79 65.547 77.742 63.897391 76 63.275391L76 58.650391L82.039062 55.970703C82.899062 55.580703 83.559844 54.849219 83.839844 53.949219C84.129844 53.049219 84.019063 52.069766 83.539062 51.259766L77.039062 40.330078C76.869062 40.020078 76.759219 39.669297 76.699219 39.279297C74.589844 24.016797 61.601135 12.973437 46.439453 13.003906 z M 47.355469 15.023438C48.598219 15.062562 49.822391 15.179594 51.025391 15.371094C51.013391 15.413094 51 15.455 51 15.5L51 20.5C51 20.776 51.224 21 51.5 21C51.776 21 52 20.776 52 20.5L52 15.537109C63.679 17.814109 73.015703 27.198781 74.720703 39.550781C74.810703 40.190781 75.000547 40.770078 75.310547 41.330078L81.820312 52.279297C82.010312 52.609297 82.049453 52.979844 81.939453 53.339844C81.819453 53.699844 81.570703 53.990625 81.220703 54.140625L74.589844 57.089844C74.229844 57.249844 74 57.6 74 58L74 63.050781C71.922 63.284781 70.283781 64.923 70.050781 67L51.5 67C49.019 67 47 64.981 47 62.5L47 59.976562C49.638 59.853563 52.095844 58.775766 53.964844 56.884766C54.158844 56.688766 54.156938 56.371734 53.960938 56.177734C53.764938 55.982734 53.447906 55.986641 53.253906 56.181641C51.455906 57.999641 49.058 59 46.5 59C41.262 59 37 54.738 37 49.5C37 44.262 41.262 40 46.5 40C51.738 40 56 44.262 56 49.5C56 51.164 55.562328 52.802375 54.736328 54.234375C54.598328 54.473375 54.681875 54.778969 54.921875 54.917969C55.160875 55.052969 55.466469 54.973375 55.605469 54.734375C56.518469 53.149375 57 51.339 57 49.5C57 45.722 54.988328 42.414453 51.986328 40.564453C51.989328 40.542453 52 40.523 52 40.5L52 27.5C52 27.224 51.776 27 51.5 27C51.224 27 51 27.224 51 27.5L51 40.027344C49.634 39.376344 48.112 39 46.5 39C44.888 39 43.366 39.376344 42 40.027344L42 15.5C42 15.451 41.985656 15.408281 41.972656 15.363281C42.504656 15.278281 43.039078 15.203391 43.580078 15.150391C44.852078 15.024391 46.112719 14.984313 47.355469 15.023438 z M 51.5 22C51.224 22 51 22.224 51 22.5L51 24.5C51 24.776 51.224 25 51.5 25C51.776 25 52 24.776 52 24.5L52 22.5C52 22.224 51.776 22 51.5 22 z M 46.5 45C44.019 45 42 47.019 42 49.5C42 51.981 44.019 54 46.5 54C48.981 54 51 51.981 51 49.5C51 47.019 48.981 45 46.5 45 z M 46.5 46C48.43 46 50 47.57 50 49.5C50 51.43 48.43 53 46.5 53C44.57 53 43 51.43 43 49.5C43 47.57 44.57 46 46.5 46 z M 74.5 64C76.43 64 78 65.57 78 67.5C78 69.43 76.43 71 74.5 71C72.57 71 71 69.43 71 67.5C71 65.57 72.57 64 74.5 64 z" fill="#0055FF"></path></svg>