<svg xmlns="http://www.w3.org/2000/svg" viewBox="0 0 100 100" width="400" height="400"><path d="M37.5 11C33.916 11 31 13.916 31 17.5C31 19.246313 31.69576 20.830925 32.820312 22L18 22C15.794 22 14 23.794 14 26L14 34C14 35.103 14.897 36 16 36L18 36L18 79C18 82.309 20.691 85 24 85L77 85C79.757 85 82 82.757 82 80L82 36L84 36C85.103 36 86 35.103 86 34L86 26C86 23.794 84.206 22 82 22L67.179688 22C68.30424 20.830925 69 19.246313 69 17.5C69 13.916 66.084 11 62.5 11C59.619324 11 56.641628 12.341665 53.855469 14.857422C52.937833 13.734031 51.560284 13 50 13C48.439716 13 47.062167 13.734031 46.144531 14.857422C43.358372 12.3408 40.380676 11 37.5 11 z M 37.5 12C40.817 12 43.681078 13.940641 45.580078 15.681641C45.548411 15.741474 45.525249 15.804382 45.496094 15.865234C45.448204 15.965795 45.398651 16.063865 45.357422 16.167969C45.262159 16.406007 45.188176 16.649866 45.130859 16.898438C45.098667 17.040556 45.070544 17.183693 45.050781 17.330078C45.046435 17.361476 45.038894 17.392339 45.035156 17.423828C45.013248 17.613407 45 17.804644 45 18C45 18.271316 45.026563 18.53521 45.068359 18.794922C45.075098 18.836597 45.080118 18.878585 45.087891 18.919922C45.110263 19.039511 45.152843 19.151125 45.183594 19.267578C45.23261 19.452398 45.282322 19.636513 45.351562 19.8125C45.403647 19.945595 45.468357 20.069974 45.53125 20.197266C45.603205 20.342166 45.67635 20.484465 45.761719 20.621094C45.838532 20.744825 45.920816 20.862264 46.007812 20.978516C46.096654 21.096426 46.19016 21.208809 46.289062 21.318359C46.399535 21.441777 46.512707 21.559929 46.634766 21.671875C46.715636 21.745347 46.801019 21.812699 46.886719 21.880859C46.935439 21.920035 46.981061 21.962635 47.03125 22L34.349609 22C32.931656 21.004061 32 19.360011 32 17.5C32 14.468 34.467 12 37.5 12 z M 62.5 12C65.533 12 68 14.468 68 17.5C68 19.360011 67.068344 21.004061 65.650391 22L52.96875 22C53.018939 21.962635 53.064561 21.920035 53.113281 21.880859C53.198981 21.812699 53.284364 21.745347 53.365234 21.671875C53.487293 21.559929 53.600465 21.441777 53.710938 21.318359C53.80984 21.208809 53.903346 21.096426 53.992188 20.978516C54.079184 20.862264 54.161468 20.744825 54.238281 20.621094C54.32365 20.484465 54.396795 20.342166 54.46875 20.197266C54.531643 20.069974 54.596353 19.945595 54.648438 19.8125C54.717678 19.636513 54.76739 19.452398 54.816406 19.267578C54.847157 19.151125 54.889737 19.039511 54.912109 18.919922C54.919882 18.878585 54.924902 18.836597 54.931641 18.794922C54.973437 18.53521 55 18.271316 55 18C55 17.804644 54.986752 17.613407 54.964844 17.423828C54.961106 17.392339 54.953565 17.361476 54.949219 17.330078C54.929456 17.183693 54.901333 17.040556 54.869141 16.898438C54.811824 16.649866 54.737841 16.406007 54.642578 16.167969C54.601349 16.063865 54.551796 15.965795 54.503906 15.865234C54.474751 15.804382 54.451589 15.741474 54.419922 15.681641C56.318922 13.940641 59.183 12 62.5 12 z M 50 14C51.358835 14 52.558051 14.684282 53.28125 15.722656L53.365234 15.855469C53.469991 16.019228 53.564131 16.190343 53.644531 16.369141C53.686233 16.46101 53.715487 16.556165 53.75 16.650391C53.797823 16.782694 53.841177 16.91636 53.875 17.054688C53.895474 17.136761 53.914552 17.219616 53.929688 17.302734C53.970016 17.530226 54 17.761088 54 18C54 18.264354 53.971021 18.521341 53.921875 18.771484C53.902991 18.866857 53.867424 18.955938 53.841797 19.048828C53.800683 19.198877 53.76271 19.349689 53.705078 19.492188C53.657787 19.608256 53.594849 19.715738 53.537109 19.826172C53.483195 19.930056 53.433605 20.036434 53.371094 20.134766C53.280941 20.275344 53.177174 20.405247 53.070312 20.533203C53.029039 20.583127 52.990869 20.635744 52.947266 20.683594C52.815892 20.82614 52.672681 20.957676 52.521484 21.080078C52.489323 21.106463 52.458766 21.134765 52.425781 21.160156C52.250952 21.292842 52.065597 21.412463 51.869141 21.515625C51.861431 21.519745 51.853442 21.523273 51.845703 21.527344C51.419674 21.747491 50.946709 21.895079 50.443359 21.951172L50.154297 21.984375C50.101918 21.986417 50.052871 22 50 22C49.947129 22 49.898082 21.986417 49.845703 21.984375L49.556641 21.951172C48.811047 21.868083 48.133561 21.584667 47.574219 21.160156C47.541234 21.134765 47.510677 21.106463 47.478516 21.080078C47.327319 20.957676 47.184108 20.82614 47.052734 20.683594C47.009131 20.635744 46.970961 20.583127 46.929688 20.533203C46.822826 20.405247 46.719059 20.275344 46.628906 20.134766C46.566395 20.036434 46.516805 19.930056 46.462891 19.826172C46.405151 19.715738 46.342213 19.608256 46.294922 19.492188C46.23729 19.349689 46.199317 19.198877 46.158203 19.048828C46.132576 18.955938 46.097009 18.866857 46.078125 18.771484C46.028979 18.521341 46 18.264354 46 18C46 17.761088 46.029984 17.530226 46.070312 17.302734C46.085448 17.219627 46.104526 17.136741 46.125 17.054688C46.158823 16.91636 46.202177 16.782694 46.25 16.650391C46.284513 16.556215 46.313767 16.460936 46.355469 16.369141C46.435633 16.190868 46.530385 16.020747 46.634766 15.857422L46.724609 15.714844C47.448407 14.680983 48.644664 14 50 14 z M 18 24L44 24L44 34L16 34L16 26C16 24.897 16.897 24 18 24 z M 45 24L55 24L55 34L45 34L45 24 z M 56 24L82 24C83.103 24 84 24.897 84 26L84.001953 34L56 34L56 24 z M 20 36L44 36L44 83L24 83C21.794 83 20 81.206 20 79L20 36 z M 45 36L55 36L55 83L45 83L45 36 z M 56 36L80 36L80 80C80 81.654 78.654 83 77 83L56 83L56 36 z M 23.5 39C23.224 39 23 39.224 23 39.5L23 40.5C23 40.776 23.224 41 23.5 41C23.776 41 24 40.776 24 40.5L24 39.5C24 39.224 23.776 39 23.5 39 z M 76.5 39C76.224 39 76 39.224 76 39.5L76 48.5C76 48.776 76.224 49 76.5 49C76.776 49 77 48.776 77 48.5L77 39.5C77 39.224 76.776 39 76.5 39 z M 23.5 43C23.224 43 23 43.224 23 43.5L23 47.5C23 47.776 23.224 48 23.5 48C23.776 48 24 47.776 24 47.5L24 43.5C24 43.224 23.776 43 23.5 43 z M 23.5 55C23.224 55 23 55.224 23 55.5L23 78.5C23 79.327 23.673 80 24.5 80L40.5 80C40.776 80 41 79.776 41 79.5C41 79.224 40.776 79 40.5 79L24.5 79C24.224 79 24 78.775 24 78.5L24 55.5C24 55.224 23.776 55 23.5 55 z M 76.5 55C76.224 55 76 55.224 76 55.5L76 57.5C76 57.776 76.224 58 76.5 58C76.776 58 77 57.776 77 57.5L77 55.5C77 55.224 76.776 55 76.5 55 z M 76.5 60C76.224 60 76 60.224 76 60.5L76 65.5C76 65.776 76.224 66 76.5 66C76.776 66 77 65.776 77 65.5L77 60.5C77 60.224 76.776 60 76.5 60 z M 76.5 68C76.224 68 76 68.224 76 68.5L76 78.5C76 78.775 75.776 79 75.5 79L59.5 79C59.224 79 59 79.224 59 79.5C59 79.776 59.224 80 59.5 80L75.5 80C76.327 80 77 79.327 77 78.5L77 68.5C77 68.224 76.776 68 76.5 68 z" fill="#0055FF"></path></svg>