<svg xmlns="http://www.w3.org/2000/svg" viewBox="0 0 100 100" width="400" height="400"><path d="M10 24 A 1.0001 1.0001 0 1 0 10 26L37.376953 26C41.356272 25.999062 45.170853 27.577103 47.984375 30.390625L48.585938 30.992188L38.1875 41.390625C37.398731 42.179394 36.995992 43.223669 37 44.257812C37.0046 45.533926 37.6328 46.810466 38.810547 47.560547C39.974524 48.301863 41.639234 49.003906 44 49.003906C48.091981 49.003906 51.584584 47.833385 55.707031 43.710938 A 1.0001 1.0001 0 0 0 55.707031 43.708984C56.401435 43.013701 59.001473 40.412847 59.414062 40L67 40 A 1.0001 1.0001 0 1 0 67 38L59 38 A 1.0001 1.0001 0 0 0 58.292969 38.292969C58.292969 38.292969 55.044737 41.542153 54.292969 42.294922C50.415416 46.172475 47.752019 47.003906 44 47.003906C42.016766 47.003906 40.824789 46.473684 39.884766 45.875C39.295098 45.499454 39.002002 44.889255 39 44.25C38.998 43.736145 39.194333 43.211917 39.601562 42.804688L50.527344 31.878906 A 1.0001 1.0001 0 0 0 50.886719 31.519531L52.015625 30.390625C54.829147 27.577103 58.643728 25.999062 62.623047 26L90 26 A 1.0001 1.0001 0 1 0 90 24L62.625 24L62.623047 24C58.115073 23.999457 53.789579 25.788547 50.601562 28.976562L50 29.578125L49.398438 28.976562C46.210422 25.788547 41.884927 23.999457 37.376953 24L10 24 z M 60.994141 41.986328 A 1.0001 1.0001 0 0 0 60.298828 43.705078L75.048828 58.455078C76.326735 59.732985 76.326735 61.772874 75.048828 63.050781L75.046875 63.050781C74.40925 63.689176 73.583711 64.003906 72.75 64.003906C71.948311 64.003906 71.15801 63.705213 70.53125 63.115234C70.507485 63.090524 70.487236 63.063408 70.462891 63.039062L70.460938 63.039062L67.705078 60.292969 A 1.0001 1.0001 0 0 0 66.988281 59.992188 A 1.0001 1.0001 0 0 0 66.294922 61.710938L68.927734 64.335938 A 1.0005843 1.0005843 0 0 0 69.037109 64.464844C69.061817 64.489581 69.088192 64.51101 69.113281 64.535156C70.317738 65.816702 70.301931 67.797679 69.048828 69.050781L69.046875 69.050781C68.40925 69.689176 67.583711 70.003906 66.75 70.003906C65.948789 70.003906 65.159789 69.704506 64.533203 69.115234C64.509083 69.09014 64.487609 69.063781 64.462891 69.039062L64.453125 69.048828L61.708984 66.296875 A 1.0001 1.0001 0 1 0 60.291016 67.707031L63.037109 70.464844C63.064134 70.491901 63.093612 70.514666 63.121094 70.541016C64.317808 71.822898 64.299277 73.800332 63.048828 75.050781L63.046875 75.050781C62.40925 75.689176 61.583711 76.001953 60.75 76.001953C59.948789 76.001953 59.159789 75.704365 58.533203 75.115234C58.509083 75.09014 58.487609 75.063781 58.462891 75.039062L58.460938 75.039062L55.705078 72.292969 A 1.0001 1.0001 0 0 0 54.988281 71.992188 A 1.0001 1.0001 0 0 0 54.294922 73.710938L57.046875 76.453125L57.037109 76.462891C57.059844 76.485653 57.084363 76.505082 57.107422 76.527344C58.317655 77.808725 58.303891 79.795718 57.048828 81.050781L57.046875 81.050781C56.40925 81.689176 55.583711 82.001953 54.75 82.001953C53.916289 82.001953 53.09075 81.689176 52.453125 81.050781L49.962891 78.560547C49.876949 77.48679 49.495369 76.428629 48.748047 75.587891C47.898108 74.631709 46.583333 74.001953 45 74.001953C44.606995 74.001953 44.229959 74.040321 43.873047 74.113281C43.949266 73.746035 44 73.375026 44 73.001953C44 71.779731 43.597986 70.544073 42.748047 69.587891C41.898108 68.631709 40.583333 68.001953 39 68.001953C38.606995 68.001953 38.229959 68.040321 37.873047 68.113281C37.949266 67.746035 38 67.375026 38 67.001953C38 65.779731 37.597986 64.544073 36.748047 63.587891C35.898108 62.631709 34.583333 62.001953 33 62.001953C32.606995 62.001953 32.229959 62.040321 31.873047 62.113281C31.949266 61.746035 32 61.375026 32 61.001953C32 59.779731 31.597986 58.544073 30.748047 57.587891C29.977874 56.721446 28.823041 56.128128 27.435547 56.023438L25.458984 54.056641L25.457031 54.054688C24.146427 52.745108 22.368302 52 20.511719 52L10 52 A 1.0001 1.0001 0 1 0 10 54L20.511719 54C21.834214 54 23.10576 54.531541 24.044922 55.470703L24.96875 56.390625C24.286414 56.668856 23.702393 57.081146 23.251953 57.587891C22.402014 58.544073 22 59.779731 22 61.001953C22 62.224175 22.402014 63.459834 23.251953 64.416016C24.101892 65.372198 25.416667 66.001953 27 66.001953C27.393005 66.001953 27.770041 65.963585 28.126953 65.890625C28.050734 66.257871 28 66.628881 28 67.001953C28 68.224175 28.402014 69.459834 29.251953 70.416016C30.101892 71.372198 31.416667 72.001953 33 72.001953C33.393005 72.001953 33.770041 71.963585 34.126953 71.890625C34.050734 72.257871 34 72.628881 34 73.001953C34 74.224175 34.402014 75.459834 35.251953 76.416016C36.101892 77.372198 37.416667 78.001953 39 78.001953C39.393005 78.001953 39.770041 77.963585 40.126953 77.890625C40.050734 78.257871 40 78.628881 40 79.001953C40 80.224175 40.402014 81.459834 41.251953 82.416016C42.101892 83.372198 43.416667 84.001953 45 84.001953C46.583333 84.001953 47.898108 83.372198 48.748047 82.416016C49.119388 81.998256 49.391537 81.521511 49.595703 81.021484L51.037109 82.462891C52.057484 83.484496 53.407711 84.001953 54.75 84.001953C56.092289 84.001953 57.442516 83.484496 58.462891 82.462891C59.694252 81.23074 60.170468 79.526726 59.916016 77.919922C60.192476 77.964451 60.471198 78.001953 60.75 78.001953C62.092289 78.001953 63.442516 77.484496 64.462891 76.462891C65.69376 75.231232 66.169773 73.528115 65.916016 71.921875C66.192476 71.966404 66.471198 72.003906 66.75 72.003906C68.092289 72.003906 69.442516 71.486449 70.462891 70.464844C71.694976 69.232759 72.170673 67.529236 71.916016 65.921875C72.192476 65.966404 72.471198 66.003906 72.75 66.003906C74.092289 66.003906 75.442516 65.486449 76.462891 64.464844C78.504984 62.422751 78.504984 59.081156 76.462891 57.039062L61.712891 42.289062 A 1.0001 1.0001 0 0 0 60.994141 41.986328 z M 82.492188 43.994141 A 0.50005 0.50005 0 0 0 82 44.501953L82 45.501953 A 0.50005 0.50005 0 1 0 83 45.501953L83 44.501953 A 0.50005 0.50005 0 0 0 82.492188 43.994141 z M 82.492188 46.994141 A 0.50005 0.50005 0 0 0 82 47.501953L82 52.876953 A 1.0001 1.0001 0 0 0 81.994141 52.921875C81.956201 53.392406 81.751037 53.836853 81.414062 54.173828L79.292969 56.294922 A 1.0001 1.0001 0 1 0 80.707031 57.708984L82.828125 55.587891C83.254649 55.161321 83.365428 54.558972 83.5625 54L90 54 A 1.0001 1.0001 0 1 0 90 52L83 52L83 47.501953 A 0.50005 0.50005 0 0 0 82.492188 46.994141 z M 54.494141 47.996094 A 0.50005 0.50005 0 0 0 54.146484 48.855469L56.146484 50.855469 A 0.50005 0.50005 0 1 0 56.853516 50.148438L54.853516 48.148438 A 0.50005 0.50005 0 0 0 54.494141 47.996094 z M 58.494141 51.996094 A 0.50005 0.50005 0 0 0 58.146484 52.855469L63.146484 57.855469 A 0.50005 0.50005 0 1 0 63.853516 57.148438L58.853516 52.148438 A 0.50005 0.50005 0 0 0 58.494141 51.996094 z M 48.494141 53.996094 A 0.50005 0.50005 0 0 0 48.146484 54.855469L49.146484 55.855469 A 0.50005 0.50005 0 1 0 49.853516 55.148438L48.853516 54.148438 A 0.50005 0.50005 0 0 0 48.494141 53.996094 z M 51.494141 56.996094 A 0.50005 0.50005 0 0 0 51.146484 57.855469L52.146484 58.855469 A 0.50005 0.50005 0 1 0 52.853516 58.148438L51.853516 57.148438 A 0.50005 0.50005 0 0 0 51.494141 56.996094 z M 26.904297 58.009766 A 1.0001 1.0001 0 0 0 27.109375 58.011719C27.109375 58.011719 27.111328 58.011719 27.111328 58.011719C28.125397 58.038242 28.786731 58.392641 29.251953 58.916016C29.735347 59.459834 30 60.224175 30 61.001953C30 61.779731 29.735347 62.544073 29.251953 63.087891C28.768559 63.631709 28.083333 64.001953 27 64.001953C25.916667 64.001953 25.231441 63.631709 24.748047 63.087891C24.264653 62.544073 24 61.779731 24 61.001953C24 60.224175 24.264653 59.459834 24.748047 58.916016C25.215828 58.389762 25.880642 58.032711 26.904297 58.009766 z M 54.494141 59.996094 A 0.50005 0.50005 0 0 0 54.146484 60.855469L57.146484 63.855469 A 0.50005 0.50005 0 1 0 57.853516 63.148438L54.853516 60.148438 A 0.50005 0.50005 0 0 0 54.494141 59.996094 z M 45.494141 62.996094 A 0.50005 0.50005 0 0 0 45.146484 63.855469L51.146484 69.855469 A 0.50005 0.50005 0 1 0 51.853516 69.148438L45.853516 63.148438 A 0.50005 0.50005 0 0 0 45.494141 62.996094 z M 33 64.001953C34.083333 64.001953 34.768559 64.372198 35.251953 64.916016C35.735347 65.459834 36 66.224175 36 67.001953C36 67.779731 35.735347 68.544073 35.251953 69.087891C34.768559 69.631709 34.083333 70.001953 33 70.001953C31.916667 70.001953 31.231441 69.631709 30.748047 69.087891C30.264653 68.544073 30 67.779731 30 67.001953C30 66.224175 30.264653 65.459834 30.748047 64.916016C31.231441 64.372198 31.916667 64.001953 33 64.001953 z M 39 70.001953C40.083333 70.001953 40.768559 70.372198 41.251953 70.916016C41.735347 71.459834 42 72.224175 42 73.001953C42 73.779731 41.735347 74.544073 41.251953 75.087891C40.768559 75.631709 40.083333 76.001953 39 76.001953C37.916667 76.001953 37.231441 75.631709 36.748047 75.087891C36.264653 74.544073 36 73.779731 36 73.001953C36 72.224175 36.264653 71.459834 36.748047 70.916016C37.231441 70.372198 37.916667 70.001953 39 70.001953 z M 45 76.001953C46.083333 76.001953 46.768559 76.372198 47.251953 76.916016C47.713725 77.435509 47.969659 78.156993 47.992188 78.898438 A 1.0001 1.0001 0 0 0 47.992188 79.105469C47.969659 79.846913 47.713725 80.568397 47.251953 81.087891C46.768559 81.631709 46.083333 82.001953 45 82.001953C43.916667 82.001953 43.231441 81.631709 42.748047 81.087891C42.264653 80.544073 42 79.779731 42 79.001953C42 78.224175 42.264653 77.459834 42.748047 76.916016C43.231441 76.372198 43.916667 76.001953 45 76.001953 z" fill="#0055FF"></path></svg>