<svg xmlns="http://www.w3.org/2000/svg" viewBox="0 0 100 100" width="400" height="400"><path d="M50 17C40.302036 17 31.62599 21.461506 25.552734 28L19.261719 28C10.305942 28 3 35.15859 3 44.345703L3 54.685547C3 63.871721 10.308316 71 19.261719 71L24.683594 71C30.781036 78.102963 39.830153 83 50 83C60.169847 83 69.218964 78.102963 75.316406 71L80.736328 71C89.631963 71 97 64.606206 97 54.685547L97 44.345703C97 35.158744 89.695854 28 80.736328 28L74.447266 28C68.37401 21.461506 59.697964 17 50 17 z M 50 19C59.25346 19 67.581782 23.31479 73.324219 29.669922 A 1.0001 1.0001 0 0 0 74.066406 30L80.736328 30C88.638802 30 95 36.210662 95 44.345703L95 54.685547C95 63.640888 88.702694 69 80.736328 69L74.914062 69 A 1.0001 1.0001 0 0 0 74.146484 69.359375C68.395512 76.258795 59.704776 81 50 81C40.295224 81 31.604488 76.258795 25.853516 69.359375 A 1.0001 1.0001 0 0 0 25.085938 69L19.261719 69C11.361122 69 5 62.819373 5 54.685547L5 44.345703C5 36.210816 11.363495 30 19.261719 30L25.933594 30 A 1.0001 1.0001 0 0 0 26.675781 29.669922C32.418218 23.31479 40.74654 19 50 19 z M 61.335938 33C59.878669 33.028092 57.766898 33.222316 55.818359 34.324219C53.220308 35.793421 50.986419 38.915001 50.972656 45.066406 A 0.50005 0.50005 0 0 0 50.972656 45.068359L51 56.501953C50.999996 57.50185 50.9957 58.907214 50.351562 60.429688C49.707085 61.952999 48.427754 63.60528 45.759766 65.060547 A 0.50005 0.50005 0 0 0 46 66L49.5 66 A 0.50005 0.50005 0 1 0 49.5 65L47.486328 65C49.385959 63.666003 50.680629 62.221495 51.273438 60.820312C52.003959 59.093626 52 57.5 52 56.5 A 0.50005 0.50005 0 0 0 52 56.498047L51.972656 45.066406C51.986396 39.151371 54.015886 36.490994 56.310547 35.193359C58.605492 33.895609 61.239678 34 62.544922 34L80.757812 34C86.215734 34 88.669459 36.587851 89.890625 39.210938C91.111791 41.834024 91 44.476563 91 44.476562 A 0.50005 0.50005 0 0 0 91 44.5L91 54.699219C91 60.198464 88.581374 62.668819 86.148438 63.890625C83.7155 65.112431 81.267578 65 81.267578 65 A 0.50005 0.50005 0 0 0 81.244141 65L60.5 65 A 0.50005 0.50005 0 1 0 60.5 66L81.21875 66C81.21875 66 83.900641 66.1386 86.595703 64.785156C89.290765 63.431713 92 60.500974 92 54.699219L92 44.523438C92 44.523438 92.138162 41.665976 90.798828 38.789062C89.459494 35.912149 86.541892 33 80.757812 33L62.544922 33C62.234983 33 61.821694 32.990636 61.335938 33 z M 82.005859 38.919922C80.356374 38.919922 79 40.269664 79 41.929688C79 43.58247 80.358549 44.919922 82.005859 44.919922C83.65317 44.919922 85 43.580058 85 41.929688C85 40.272061 83.655345 38.919922 82.005859 38.919922 z M 12.5 39 A 0.50005 0.50005 0 0 0 12.015625 39.625L17.1875 59.625 A 0.50005 0.50005 0 0 0 17.671875 60L22.900391 60 A 0.50005 0.50005 0 0 0 23.388672 59.605469L25.5 49.859375L27.611328 59.605469 A 0.50005 0.50005 0 0 0 28.099609 60L33.300781 60 A 0.50005 0.50005 0 0 0 33.783203 59.625L38.984375 39.625 A 0.50005 0.50005 0 0 0 38.5 39L32.492188 39 A 0.50005 0.50005 0 0 0 32 39.412109L30.408203 48.333984L28.589844 39.400391 A 0.50005 0.50005 0 0 0 28.099609 39L22.84375 39 A 0.50005 0.50005 0 0 0 22.353516 39.402344L20.580078 48.337891L18.9375 39.410156 A 0.50005 0.50005 0 0 0 18.445312 39L12.5 39 z M 44 39C42.352924 39 41 40.350221 41 42.009766C41 43.662067 42.355105 45 44 45C45.644895 45 47 43.662067 47 42.009766C47 40.350221 45.647076 39 44 39 z M 59.5 39 A 0.50005 0.50005 0 0 0 59 39.5L59 59.5 A 0.50005 0.50005 0 0 0 59.5 60L64.5 60 A 0.50005 0.50005 0 0 0 65 59.5L65 54L74.5 54 A 0.50005 0.50005 0 0 0 75 53.5L75 48.5 A 0.50005 0.50005 0 0 0 74.5 48L65 48L65 45L75.5 45 A 0.50005 0.50005 0 0 0 76 44.5L76 39.5 A 0.50005 0.50005 0 0 0 75.5 39L59.5 39 z M 82.005859 39.919922C83.114374 39.919922 84 40.807313 84 41.929688C84 43.041317 83.116549 43.919922 82.005859 43.919922C80.89517 43.919922 80 43.038904 80 41.929688C80 40.809711 80.897345 39.919922 82.005859 39.919922 z M 13.146484 40L18.029297 40L20.068359 51.089844 A 0.50005 0.50005 0 0 0 21.050781 51.097656L23.253906 40L27.691406 40L29.949219 51.099609 A 0.50005 0.50005 0 0 0 30.931641 51.087891L32.910156 40L37.853516 40L32.914062 59L28.503906 59L25.988281 47.394531 A 0.50005 0.50005 0 0 0 25.011719 47.394531L22.496094 59L18.058594 59L13.146484 40 z M 44 40C45.104924 40 46 40.88931 46 42.009766C46 43.119465 45.107105 44 44 44C42.892895 44 42 43.119465 42 42.009766C42 40.88931 42.895076 40 44 40 z M 60 40L75 40L75 44L64.5 44 A 0.50005 0.50005 0 0 0 64 44.5L64 48.5 A 0.50005 0.50005 0 0 0 64.5 49L74 49L74 53L64.5 53 A 0.50005 0.50005 0 0 0 64 53.5L64 59L60 59L60 40 z M 41.5 47 A 0.50005 0.50005 0 0 0 41 47.5L41 59.5 A 0.50005 0.50005 0 0 0 41.5 60L46.5 60 A 0.50005 0.50005 0 0 0 47 59.5L47 47.5 A 0.50005 0.50005 0 0 0 46.5 47L41.5 47 z M 79.503906 47 A 0.50005 0.50005 0 0 0 79.003906 47.5L79.003906 59.5 A 0.50005 0.50005 0 0 0 79.503906 60L84.503906 60 A 0.50005 0.50005 0 0 0 85.003906 59.5L85.003906 47.5 A 0.50005 0.50005 0 0 0 84.503906 47L79.503906 47 z M 42 48L46 48L46 59L42 59L42 48 z M 80.003906 48L84.003906 48L84.003906 59L80.003906 59L80.003906 48 z M 52.5 65 A 0.50005 0.50005 0 1 0 52.5 66L56.5 66 A 0.50005 0.50005 0 1 0 56.5 65L52.5 65 z" fill="#0055FF"></path></svg>